<?xml version="1.0" encoding="UTF-8" standalone="no"?>
<!DOCTYPE svg PUBLIC "-//W3C//DTD SVG 1.1//EN" "http://www.w3.org/Graphics/SVG/1.1/DTD/svg11.dtd">
<svg version="1.1" xmlns="http://www.w3.org/2000/svg" xmlns:xlink="http://www.w3.org/1999/xlink" preserveAspectRatio="xMidYMid meet" viewBox="0 0 46.14 38" width="46.14" height="38"><defs><path d="M5960.43 4839.93L5960.43 -119.93L1000.57 -119.93L1000.57 4839.93L5960.43 4839.93Z" id="a2vVEBNlf0"></path><path d="M1000.48 2369.69C1000.57 2369.62 1000.65 2369.55 1000.74 2369.5C1010.02 2363.47 1018.29 2356.39 1025.31 2348.48C1038.19 2333.98 1048.97 2317.34 1059.39 2301.24C1064.54 2293.3 1069.86 2285.08 1075.41 2277.14C1079.43 2271.41 1083.37 2265.39 1087.19 2259.59C1096.65 2245.18 1106.43 2230.3 1118.7 2217.16C1146.82 2187.07 1180.6 2172.44 1221.97 2172.44C1238.73 2172.44 1256.36 2174.83 1275.86 2179.73C1312.88 2189.04 1338.38 2211.8 1349.6 2245.52C1362.44 2284.08 1346.83 2324.51 1310.74 2346.14C1298.24 2353.64 1283.05 2357.6 1266.83 2357.6C1241.06 2357.6 1217.5 2347.4 1205.37 2330.98C1191.18 2311.8 1193.91 2285.5 1211.45 2272.37C1220.08 2265.92 1229.34 2262.64 1238.99 2262.64C1243.44 2262.64 1247.96 2263.36 1252.44 2264.77C1265.37 2268.84 1273.8 2276.8 1277.16 2288C1277.7 2287.34 1278.14 2286.69 1278.43 2286.05C1282.22 2277.88 1281.89 2269.13 1277.48 2261.42C1272.7 2253.05 1263.54 2246.76 1252.34 2244.16C1247.08 2242.95 1241.7 2242.33 1236.33 2242.33C1203.71 2242.33 1174.96 2265.07 1169.44 2295.23C1164.99 2319.53 1170.56 2341.43 1185.55 2358.56C1201.57 2376.86 1227.6 2388.53 1258.85 2391.42C1264.64 2391.96 1270.39 2392.22 1275.94 2392.22C1325.84 2392.22 1367.1 2370.25 1398.56 2326.93C1411.3 2309.38 1421.64 2291.22 1433.82 2269.31C1448.3 2243.27 1465.54 2222.04 1486.54 2204.43C1511.76 2183.27 1541.8 2172.98 1578.4 2172.98C1588.24 2172.98 1598.79 2173.76 1609.76 2175.27C1652.03 2181.11 1681.99 2200.43 1698.81 2232.71C1707.6 2249.6 1710.2 2271.64 1705.74 2291.69C1700.53 2315.13 1686.2 2334.53 1665.36 2346.32C1652.66 2353.5 1636.69 2357.47 1620.37 2357.47C1596.01 2357.47 1574.63 2348.91 1563.17 2334.56C1557.15 2327.02 1552.79 2316.89 1551.2 2306.74C1549.58 2296.31 1553.09 2285.46 1560.84 2276.97C1568.18 2268.92 1578.57 2263.83 1589.34 2263C1590.82 2262.89 1592.29 2262.83 1593.72 2262.83C1605 2262.83 1623.24 2266.57 1631.19 2288.9C1632.03 2288.04 1632.66 2287.23 1633.05 2286.45C1636.96 2278.59 1636.9 2270.07 1632.88 2262.46C1628.46 2254.08 1619.63 2247.61 1608.66 2244.7C1602.81 2243.15 1596.77 2242.36 1590.72 2242.36C1558.57 2242.36 1530.59 2263.82 1524.19 2293.4C1514.07 2340.17 1545.97 2380.64 1600.03 2389.61C1610.72 2391.39 1621.21 2392.29 1631.2 2392.29C1676.24 2392.29 1713.78 2374.38 1742.77 2339.08C1757.43 2321.23 1769.36 2300.87 1780.9 2281.2C1784.68 2274.77 1788.58 2268.1 1792.54 2261.61C1812.15 2229.4 1838.69 2194.47 1886.84 2179.65C1902.01 2174.97 1919.11 2172.5 1936.27 2172.5C1982.37 2172.5 2021.76 2189.08 2044.33 2218.01C2073.6 2255.53 2066.6 2311.36 2029.05 2339.92C2014.14 2351.27 1994.78 2357.5 1974.51 2357.5C1960.46 2357.5 1946.7 2354.43 1934.71 2348.62C1911.91 2337.56 1899.74 2310.97 1907.59 2289.36C1913.33 2273.54 1929.9 2262.92 1948.81 2262.92C1949.95 2262.92 1951.09 2262.96 1952.22 2263.03C1968.95 2264.19 1981 2273.17 1986.1 2287.96C1986.91 2286.94 1987.54 2285.95 1987.89 2285.02C1994.44 2267.29 1984.44 2250.72 1963.57 2244.71C1957.56 2242.98 1951.32 2242.09 1945.04 2242.09C1919.02 2242.09 1894.98 2256.87 1883.78 2279.73C1872.97 2301.77 1873.74 2325.25 1885.95 2345.8C1899.18 2368.09 1924.51 2384.13 1955.44 2389.84C1964.92 2391.57 1974.53 2392.46 1983.99 2392.46C2031.56 2392.46 2075.25 2370.19 2103.86 2331.34C2115.34 2315.75 2125.27 2298.69 2134.86 2282.19C2139.09 2274.93 2143.46 2267.4 2147.93 2260.07C2178.55 2209.84 2209.59 2192.29 2230.28 2183.46C2246.51 2176.53 2267.41 2172.72 2289.11 2172.72C2337.93 2172.72 2379.92 2190.94 2401.44 2221.47C2426.96 2257.68 2421.24 2319.66 2375.6 2345.31C2360.97 2353.53 2345.59 2357.69 2329.9 2357.69C2317.58 2357.69 2304.96 2355.1 2292.37 2350C2269.54 2340.75 2256.18 2317.54 2260.6 2294.81C2264.13 2276.66 2282.36 2262.99 2302.99 2262.99C2303.03 2262.99 2303.32 2262.99 2303.36 2262.99C2321.65 2263.13 2335.02 2272.4 2340.27 2288.16C2345.34 2281.68 2346.19 2272.07 2341.71 2262.87C2335.64 2250.39 2318.77 2242.01 2299.75 2242.01C2297.02 2242.01 2294.27 2242.18 2291.56 2242.52C2262.36 2246.2 2237.07 2268.99 2232.73 2295.54C2228.67 2320.26 2234.58 2342.31 2249.8 2359.28C2266.07 2377.42 2292 2388.86 2322.78 2391.5C2328.25 2391.96 2333.7 2392.2 2338.96 2392.2C2389.39 2392.2 2430.61 2370.4 2461.46 2327.43C2474.97 2308.61 2486.56 2288.09 2497.78 2268.25C2497.9 2268.04 2498.87 2266.33 2498.99 2266.12C2517.56 2233.25 2541.07 2208.39 2570.83 2190.11C2588.51 2179.24 2614.89 2173.02 2643.17 2173.02C2690.18 2173.02 2730.93 2189.33 2752.17 2216.64C2781.07 2253.79 2776.28 2307.9 2741.53 2337.23C2725.96 2350.37 2705.43 2357.59 2683.7 2357.59C2670.84 2357.59 2658.04 2354.93 2646.69 2349.9C2623.96 2339.82 2610.75 2316.61 2615.29 2294.73C2619.14 2276.27 2636.92 2262.87 2657.58 2262.87C2658.16 2262.87 2658.74 2262.88 2659.33 2262.91C2676.8 2263.54 2689.85 2273.12 2694.9 2288.47C2695.37 2287.89 2695.77 2287.33 2696.11 2286.8C2699.62 2281.33 2700.21 2273.66 2697.7 2266.3C2692.73 2251.81 2675.2 2242.06 2654.07 2242.06C2650.82 2242.06 2647.49 2242.29 2644.2 2242.75C2617.28 2246.48 2592.41 2269.14 2587.56 2294.34C2582.83 2319 2588.49 2341.22 2603.92 2358.6C2620.57 2377.35 2647.97 2389.4 2679.09 2391.66C2683.76 2392 2688.42 2392.17 2692.95 2392.17C2745.24 2392.17 2786.26 2369.98 2818.38 2324.32C2829.55 2308.42 2839.3 2291.2 2848.74 2274.54C2850.45 2271.5 2852.16 2268.48 2853.88 2265.46C2869.84 2237.46 2893.92 2202.88 2938.72 2183.92C2956.1 2176.57 2977.7 2172.52 2999.55 2172.52C3024.22 2172.52 3047.8 2177.46 3067.76 2186.81C3090.47 2197.44 3107.72 2213.65 3117.64 2233.69C3129.45 2257.52 3129.45 2284.99 3117.65 2309.07C3107.14 2330.53 3088.71 2346.39 3065.75 2353.77C3057.01 2356.57 3047.88 2357.99 3038.62 2357.99C3005.41 2357.99 2977.21 2340.17 2970.04 2314.66C2966.26 2301.2 2969.34 2287.61 2978.5 2277.39C2986.72 2268.22 2999.01 2262.96 3012.22 2262.96C3013.42 2262.96 3014.64 2263 3015.86 2263.08C3034.82 2264.43 3043.99 2275.44 3049.24 2288.6C3050.04 2287.61 3050.66 2286.69 3051 2285.83C3054.98 2275.89 3053.94 2266.09 3048.09 2258.22C3041.4 2249.23 3029 2243.47 3014.06 2242.4C3012.35 2242.28 3010.61 2242.22 3008.91 2242.22C2980.2 2242.22 2954.42 2259.72 2944.73 2285.76C2929.6 2326.53 2952.27 2367.93 2998.67 2384.17C3014.27 2389.63 3030.6 2392.4 3047.24 2392.4C3087.44 2392.4 3126.31 2376 3153.9 2347.4C3177.71 2322.72 3193.72 2293.03 3209.19 2264.31C3224.81 2235.32 3247.57 2210.94 3276.82 2191.84C3295.16 2179.87 3322.72 2173 3352.43 2173C3398.8 2173 3439.23 2188.98 3460.59 2215.75C3493.3 2256.73 3484.63 2315.33 3441.68 2343.73C3428.18 2352.65 3410.87 2357.58 3392.95 2357.58C3368.5 2357.58 3346.59 2348.58 3334.35 2333.52C3323.32 2319.96 3320.37 2304.56 3325.81 2288.99C3331.26 2273.39 3347.67 2262.92 3366.64 2262.92C3368.08 2262.92 3369.54 2262.98 3370.98 2263.11C3390.25 2264.78 3399.03 2276.08 3403.55 2288.78C3404.32 2287.9 3404.94 2287.08 3405.31 2286.29C3412.76 2270.44 3404.77 2253.66 3386.31 2246.37C3378.94 2243.46 3371.1 2241.98 3363.03 2241.98C3337.15 2241.98 3313.19 2256.78 3301.98 2279.68C3292.26 2299.52 3291.88 2321.01 3300.89 2340.18C3310.11 2359.81 3328.35 2375.31 3352.23 2383.8C3368.75 2389.67 3385.44 2392.65 3401.8 2392.65C3415.46 2392.65 3429.26 2390.57 3442.8 2386.48C3444.26 2385.71 3445.84 2385.11 3447.49 2384.66C3449.25 2384.19 3451.04 2383.6 3453.16 2382.86C3453.69 2382.66 3454.21 2382.47 3454.73 2382.29C3455.5 2382.01 3456.28 2381.74 3457.04 2381.41C3472.45 2375.35 3485.65 2366.35 3485.78 2366.27C3500.16 2356.08 3513.39 2342.76 3525.05 2326.71C3537.79 2309.16 3548.13 2291 3560.31 2269.09C3574.78 2243.05 3592.03 2221.81 3613.03 2204.2C3638.25 2183.04 3668.29 2172.76 3704.89 2172.76C3714.72 2172.76 3725.27 2173.53 3736.24 2175.04C3778.51 2180.88 3808.48 2200.22 3825.29 2232.49C3834.09 2249.37 3836.68 2271.42 3832.23 2291.46C3827.02 2314.91 3812.68 2334.31 3791.85 2346.1C3779.15 2353.29 3763.17 2357.25 3746.85 2357.25C3722.5 2357.25 3701.11 2348.68 3689.65 2334.34C3683.64 2326.8 3679.28 2316.66 3677.69 2306.52C3676.07 2296.1 3679.58 2285.25 3687.33 2276.75C3694.66 2268.71 3705.05 2263.62 3715.82 2262.78C3717.31 2262.67 3718.79 2262.62 3720.21 2262.62C3731.48 2262.62 3749.72 2266.34 3757.68 2288.69C3758.52 2287.82 3759.15 2287 3759.53 2286.23C3763.44 2278.38 3763.38 2269.85 3759.37 2262.23C3754.94 2253.86 3746.12 2247.39 3735.15 2244.48C3729.3 2242.92 3723.26 2242.13 3717.21 2242.13C3685.05 2242.13 3657.08 2263.61 3650.67 2293.19C3640.56 2339.96 3672.46 2380.41 3726.51 2389.38C3737 2391.14 3747.3 2392.01 3757.14 2392.01C3785.29 2392.01 3810.87 2384.82 3833.2 2370.65C3833.61 2370.21 3834.07 2369.83 3834.58 2369.5C3843.87 2363.47 3852.14 2356.39 3859.16 2348.48C3872.04 2333.98 3882.81 2317.35 3893.23 2301.25C3898.38 2293.3 3903.7 2285.09 3909.27 2277.14C3913.28 2271.41 3917.22 2265.39 3921.04 2259.59C3930.49 2245.18 3940.27 2230.3 3952.55 2217.16C3980.67 2187.07 4014.45 2172.44 4055.82 2172.44C4072.58 2172.44 4090.2 2174.83 4109.7 2179.73C4146.72 2189.04 4172.23 2211.8 4183.45 2245.52C4196.28 2284.08 4180.68 2324.51 4144.59 2346.14C4132.08 2353.64 4116.9 2357.6 4100.68 2357.6C4074.91 2357.6 4051.35 2347.4 4039.21 2330.98C4025.03 2311.8 4027.76 2285.5 4045.29 2272.37C4053.92 2265.92 4063.19 2262.64 4072.83 2262.64C4077.29 2262.64 4081.82 2263.36 4086.29 2264.77C4099.22 2268.84 4107.65 2276.8 4111.01 2288C4111.55 2287.34 4111.99 2286.69 4112.27 2286.05C4116.07 2277.88 4115.73 2269.13 4111.34 2261.42C4106.55 2253.05 4097.39 2246.76 4086.19 2244.16C4080.93 2242.95 4075.54 2242.33 4070.17 2242.33C4037.56 2242.33 4008.8 2265.07 4003.29 2295.23C3998.84 2319.53 4004.4 2341.43 4019.4 2358.56C4035.41 2376.86 4061.44 2388.53 4092.7 2391.42C4098.49 2391.96 4104.24 2392.22 4109.79 2392.22C4159.69 2392.22 4200.95 2370.25 4232.42 2326.93C4245.15 2309.38 4255.49 2291.22 4267.66 2269.31C4282.15 2243.27 4299.38 2222.04 4320.39 2204.43C4345.61 2183.27 4375.66 2172.98 4412.26 2172.98C4422.1 2172.98 4432.65 2173.76 4443.61 2175.27C4485.89 2181.11 4515.82 2200.43 4532.66 2232.71C4541.46 2249.6 4544.03 2271.64 4539.6 2291.69C4534.39 2315.13 4520.05 2334.53 4499.21 2346.32C4486.53 2353.5 4470.53 2357.47 4454.23 2357.47C4429.84 2357.47 4408.47 2348.91 4397 2334.56C4390.98 2327.02 4386.65 2316.89 4385.06 2306.74C4383.41 2296.31 4386.96 2285.46 4394.7 2276.97C4402.04 2268.92 4412.42 2263.83 4423.18 2263C4424.67 2262.89 4426.16 2262.83 4427.58 2262.83C4438.84 2262.83 4457.07 2266.57 4465.05 2288.9C4465.86 2288.04 4466.51 2287.23 4466.88 2286.45C4470.8 2278.59 4470.73 2270.07 4466.71 2262.46C4462.31 2254.08 4453.49 2247.61 4442.49 2244.7C4436.68 2243.15 4430.62 2242.36 4424.57 2242.36C4392.4 2242.36 4364.43 2263.82 4358.04 2293.4C4347.91 2340.17 4379.82 2380.64 4433.87 2389.61C4444.56 2391.39 4455.04 2392.29 4465.05 2392.29C4510.07 2392.29 4547.65 2374.38 4576.63 2339.08C4591.28 2321.23 4603.22 2300.89 4614.75 2281.21C4618.5 2274.77 4622.43 2268.1 4626.38 2261.61C4646 2229.4 4672.55 2194.47 4720.68 2179.65C4735.87 2174.97 4752.95 2172.5 4770.13 2172.5C4816.23 2172.5 4855.6 2189.08 4878.19 2218.01C4907.45 2255.53 4900.45 2311.36 4862.9 2339.92C4847.99 2351.27 4828.61 2357.5 4808.35 2357.5C4794.31 2357.5 4780.55 2354.43 4768.57 2348.62C4745.74 2337.56 4733.6 2310.97 4741.45 2289.36C4747.16 2273.54 4763.74 2262.92 4782.64 2262.92C4783.79 2262.92 4784.94 2262.96 4786.06 2263.03C4802.8 2264.19 4814.84 2273.18 4819.95 2287.96C4820.76 2286.94 4821.37 2285.95 4821.74 2285.02C4828.27 2267.29 4818.29 2250.72 4797.42 2244.71C4791.4 2242.98 4785.18 2242.09 4778.89 2242.09C4752.88 2242.09 4728.83 2256.87 4717.64 2279.73C4706.81 2301.77 4707.59 2325.25 4719.8 2345.8C4733.03 2368.09 4758.36 2384.13 4789.27 2389.84C4798.78 2391.57 4808.38 2392.46 4817.85 2392.46C4865.41 2392.46 4909.1 2370.19 4937.72 2331.34C4949.18 2315.76 4959.09 2298.7 4968.7 2282.2C4972.93 2274.93 4977.32 2267.4 4981.79 2260.07C5012.4 2209.84 5043.45 2192.29 5064.11 2183.46C5080.35 2176.53 5101.25 2172.72 5122.96 2172.72C5171.77 2172.72 5213.77 2190.94 5235.29 2221.47C5260.82 2257.68 5255.07 2319.66 5209.45 2345.31C5194.8 2353.53 5179.45 2357.69 5163.75 2357.69C5151.44 2357.69 5138.79 2355.1 5126.24 2350C5103.38 2340.75 5090.02 2317.54 5094.45 2294.81C5097.97 2276.66 5116.2 2262.99 5136.83 2262.99C5136.87 2262.99 5137.16 2262.99 5137.2 2262.99C5155.5 2263.13 5168.86 2272.4 5174.1 2288.16C5179.17 2281.68 5180.05 2272.07 5175.56 2262.87C5169.47 2250.39 5152.62 2242.01 5133.58 2242.01C5130.88 2242.01 5128.1 2242.18 5125.4 2242.52C5096.21 2246.2 5070.91 2268.99 5066.58 2295.54C5062.52 2320.26 5068.41 2342.31 5083.66 2359.28C5099.93 2377.42 5125.84 2388.86 5156.62 2391.5C5162.09 2391.96 5167.54 2392.2 5172.82 2392.2C5223.24 2392.2 5264.44 2370.4 5295.32 2327.43C5308.82 2308.61 5320.42 2288.1 5331.61 2268.27C5331.73 2268.05 5332.71 2266.33 5332.83 2266.12C5351.43 2233.25 5374.9 2208.38 5404.67 2190.11C5422.36 2179.24 5448.74 2173.02 5477.01 2173.02C5524.03 2173.02 5564.78 2189.33 5586.02 2216.64C5614.91 2253.79 5610.14 2307.9 5575.37 2337.23C5559.81 2350.37 5539.28 2357.59 5517.53 2357.59C5504.68 2357.59 5491.89 2354.93 5480.53 2349.9C5457.8 2339.82 5444.58 2316.61 5449.14 2294.73C5453 2276.27 5470.76 2262.87 5491.42 2262.87C5492 2262.87 5492.61 2262.88 5493.18 2262.91C5510.63 2263.54 5523.69 2273.12 5528.73 2288.47C5529.2 2287.89 5529.61 2287.33 5529.94 2286.8C5533.46 2281.33 5534.04 2273.66 5531.53 2266.3C5526.56 2251.81 5509.04 2242.06 5487.9 2242.06C5484.66 2242.06 5481.34 2242.29 5478.06 2242.75C5451.14 2246.48 5426.25 2269.14 5421.41 2294.34C5416.67 2319 5422.32 2341.22 5437.78 2358.6C5454.42 2377.35 5481.82 2389.4 5512.93 2391.66C5517.6 2392 5522.27 2392.17 5526.8 2392.17C5579.09 2392.17 5620.11 2369.98 5652.21 2324.32C5663.41 2308.41 5673.18 2291.16 5682.62 2274.49C5684.31 2271.48 5686 2268.47 5687.73 2265.46C5703.69 2237.45 5727.77 2202.88 5772.59 2183.92C5789.94 2176.57 5811.55 2172.52 5833.4 2172.52C5858.05 2172.52 5881.66 2177.46 5901.62 2186.81C5924.31 2197.44 5941.56 2213.65 5951.5 2233.69C5957.25 2245.33 5960.2 2257.86 5960.33 2270.42C5960.33 2270.59 5960.33 2271.98 5960.33 2272.16C5960.2 2284.73 5957.25 2297.31 5951.5 2309.07C5940.99 2330.53 5922.55 2346.39 5899.59 2353.77C5890.86 2356.57 5881.73 2357.99 5872.46 2357.99C5839.25 2357.99 5811.04 2340.17 5803.9 2314.66C5800.12 2301.2 5803.19 2287.61 5812.33 2277.39C5820.58 2268.22 5832.86 2262.96 5846.05 2262.96C5847.26 2262.96 5848.48 2263 5849.7 2263.08C5868.67 2264.43 5877.84 2275.44 5883.08 2288.6C5883.89 2287.61 5884.5 2286.69 5884.84 2285.83C5888.83 2275.89 5887.78 2266.09 5881.93 2258.22C5875.24 2249.23 5862.86 2243.47 5847.91 2242.4C5846.18 2242.28 5844.46 2242.22 5842.77 2242.22C5814.05 2242.22 5788.25 2259.72 5778.57 2285.75C5763.45 2326.53 5786.11 2367.93 5832.52 2384.17C5848.11 2389.63 5864.45 2392.4 5881.09 2392.4C5909.29 2392.4 5936.86 2384.31 5960.33 2369.6C5960.33 2380.04 5960.33 2432.24 5960.33 2526.19L1000.48 2526.19L1000.48 2369.69" id="a2bzwo6puT"></path><path d="M5960.6 1501.32C5960.54 1501.39 5960.43 1501.46 5960.33 1501.52C5951.07 1507.56 5942.81 1514.62 5935.78 1522.53C5922.89 1537.03 5912.1 1553.68 5901.68 1569.78C5896.54 1577.72 5891.23 1585.94 5885.65 1593.88C5881.66 1599.62 5877.7 1605.62 5873.88 1611.43C5864.45 1625.83 5854.64 1640.73 5842.39 1653.85C5814.25 1683.95 5780.5 1698.58 5739.1 1698.58C5722.36 1698.58 5704.74 1696.19 5685.22 1691.28C5648.22 1681.97 5622.72 1659.23 5611.49 1625.49C5598.64 1586.95 5614.26 1546.5 5650.35 1524.88C5662.87 1517.39 5678.05 1513.42 5694.25 1513.42C5720.03 1513.42 5743.57 1523.62 5755.74 1540.04C5769.91 1559.23 5767.17 1585.51 5749.62 1598.65C5741 1605.11 5731.73 1608.38 5722.09 1608.38C5717.66 1608.38 5713.13 1607.67 5708.66 1606.26C5695.71 1602.19 5687.29 1594.21 5683.94 1583.02C5683.4 1583.69 5682.96 1584.34 5682.65 1584.96C5678.86 1593.13 5679.2 1601.88 5683.6 1609.61C5688.4 1617.98 5697.53 1624.27 5708.76 1626.86C5714.01 1628.07 5719.38 1628.69 5724.76 1628.69C5757.37 1628.69 5786.15 1605.95 5791.66 1575.79C5796.09 1551.48 5790.51 1529.58 5775.53 1512.46C5759.53 1494.15 5733.49 1482.48 5702.24 1479.6C5696.45 1479.07 5690.7 1478.79 5685.15 1478.79C5635.23 1478.79 5594 1500.76 5562.52 1544.09C5549.8 1561.63 5539.45 1579.79 5527.27 1601.71C5512.8 1627.75 5495.55 1648.98 5474.54 1666.6C5449.31 1687.75 5419.28 1698.03 5382.68 1698.03C5372.84 1698.03 5362.29 1697.27 5351.33 1695.76C5309.05 1689.92 5279.09 1670.59 5262.28 1638.3C5253.48 1621.43 5250.88 1599.38 5255.34 1579.32C5260.55 1555.89 5274.89 1536.48 5295.73 1524.7C5308.41 1517.51 5324.41 1513.55 5340.71 1513.55C5365.06 1513.55 5386.47 1522.11 5397.94 1536.46C5403.92 1543.99 5408.29 1554.14 5409.88 1564.28C5411.5 1574.7 5407.98 1585.55 5400.24 1594.05C5392.9 1602.1 5382.51 1607.18 5371.76 1608.01C5370.27 1608.13 5368.78 1608.18 5367.36 1608.18C5356.1 1608.18 5337.87 1604.46 5329.89 1582.11C5329.04 1582.99 5328.43 1583.8 5328.03 1584.57C5324.14 1592.42 5324.17 1600.95 5328.2 1608.57C5332.63 1616.95 5341.45 1623.41 5352.41 1626.32C5358.26 1627.88 5364.32 1628.67 5370.37 1628.67C5402.5 1628.67 5430.51 1607.2 5436.9 1577.61C5447.01 1530.84 5415.12 1490.39 5361.04 1481.42C5350.35 1479.64 5339.86 1478.74 5329.89 1478.74C5284.84 1478.74 5247.29 1496.64 5218.31 1531.94C5203.66 1549.79 5191.72 1570.14 5180.19 1589.82C5176.4 1596.26 5172.51 1602.91 5168.55 1609.41C5148.94 1641.62 5122.39 1676.55 5074.26 1691.38C5059.07 1696.06 5041.99 1698.52 5024.81 1698.52C4978.71 1698.52 4939.34 1681.93 4916.75 1653C4887.49 1615.48 4894.49 1559.66 4932.04 1531.09C4946.95 1519.76 4966.3 1513.51 4986.56 1513.51C5000.63 1513.51 5014.39 1516.58 5026.37 1522.41C5049.16 1533.47 5061.34 1560.04 5053.49 1581.65C5047.78 1597.47 5031.2 1608.11 5012.26 1608.11C5011.15 1608.11 5010 1608.07 5008.85 1607.98C4992.14 1606.82 4980.1 1597.85 4974.99 1583.06C4974.18 1584.07 4973.54 1585.06 4973.2 1586.01C4966.64 1603.73 4976.65 1620.31 4997.52 1626.31C5003.54 1628.04 5009.76 1628.92 5016.05 1628.92C5042.06 1628.92 5066.11 1614.14 5077.3 1591.3C5088.13 1569.24 5087.35 1545.77 5075.14 1525.22C5061.91 1502.94 5036.58 1486.89 5005.63 1481.19C4996.16 1479.44 4986.56 1478.55 4977.09 1478.55C4929.53 1478.55 4885.83 1500.84 4857.22 1539.68C4845.76 1555.27 4835.81 1572.33 4826.24 1588.83C4822.01 1596.1 4817.62 1603.61 4813.15 1610.95C4782.54 1661.19 4751.49 1678.74 4730.79 1687.56C4714.56 1694.48 4693.69 1698.3 4671.98 1698.3C4623.17 1698.3 4581.16 1680.07 4559.65 1649.55C4534.12 1613.35 4539.87 1551.37 4585.49 1525.72C4600.14 1517.5 4615.49 1513.32 4631.19 1513.32C4643.5 1513.32 4656.15 1515.91 4668.7 1521.01C4691.56 1530.27 4704.92 1553.48 4700.49 1576.21C4696.97 1594.35 4678.74 1608.03 4658.11 1608.03C4658.07 1608.03 4657.77 1608.03 4657.74 1608.03C4639.44 1607.88 4626.08 1598.61 4620.84 1582.86C4615.73 1589.35 4614.88 1598.96 4619.38 1608.14C4625.47 1620.63 4642.31 1629.02 4661.36 1629.02C4664.06 1629.02 4666.84 1628.84 4669.54 1628.49C4698.73 1624.82 4724.03 1602.02 4728.36 1575.48C4732.42 1550.76 4726.5 1528.72 4711.28 1511.75C4695.01 1493.6 4669.1 1482.15 4638.29 1479.52C4632.84 1479.05 4627.37 1478.82 4622.12 1478.82C4571.69 1478.82 4530.5 1500.61 4499.62 1543.59C4486.12 1562.4 4474.52 1582.92 4463.29 1602.77C4463.18 1602.98 4462.23 1604.68 4462.11 1604.9C4443.51 1637.77 4420.03 1662.64 4390.27 1680.91C4372.57 1691.77 4346.21 1698.01 4317.93 1698.01C4270.91 1698.01 4230.15 1681.7 4208.92 1654.38C4180.03 1617.22 4184.8 1563.13 4219.57 1533.78C4235.12 1520.66 4255.65 1513.42 4277.4 1513.42C4290.25 1513.42 4303.04 1516.08 4314.39 1521.12C4337.14 1531.21 4350.33 1554.4 4345.79 1576.29C4341.95 1594.75 4324.17 1608.14 4303.51 1608.14C4302.93 1608.14 4302.34 1608.13 4301.76 1608.11C4284.28 1607.48 4271.24 1597.9 4266.2 1582.56C4265.72 1583.12 4265.33 1583.69 4264.99 1584.21C4261.48 1589.69 4260.87 1597.35 4263.4 1604.71C4268.36 1619.22 4285.9 1628.96 4307.02 1628.96C4310.28 1628.96 4313.59 1628.73 4316.89 1628.27C4343.8 1624.53 4368.68 1601.87 4373.52 1576.69C4378.26 1552.03 4372.61 1529.81 4357.16 1512.42C4340.51 1493.68 4313.12 1481.63 4282.01 1479.37C4277.32 1479.03 4272.66 1478.85 4268.14 1478.85C4215.86 1478.85 4174.82 1501.05 4142.72 1546.7C4131.53 1562.59 4121.78 1579.83 4112.36 1596.49C4110.64 1599.51 4108.92 1602.55 4107.2 1605.57C4091.24 1633.57 4067.17 1668.14 4022.36 1687.1C4004.99 1694.46 3983.38 1698.51 3961.53 1698.51C3936.86 1698.51 3913.28 1693.56 3893.32 1684.21C3870.61 1673.57 3853.36 1657.36 3843.44 1637.33C3831.63 1613.51 3831.63 1586.02 3843.43 1561.94C3853.95 1540.49 3872.39 1524.62 3895.33 1517.26C3904.07 1514.45 3913.21 1513.04 3922.48 1513.04C3955.67 1513.04 3983.87 1530.84 3991.04 1556.35C3994.83 1569.81 3991.74 1583.4 3982.58 1593.62C3974.37 1602.8 3962.08 1608.06 3948.87 1608.06C3947.66 1608.06 3946.44 1608.02 3945.23 1607.93C3926.26 1606.6 3917.09 1595.59 3911.84 1582.41C3911.04 1583.4 3910.43 1584.32 3910.08 1585.19C3906.12 1595.12 3907.15 1604.93 3913.01 1612.81C3919.68 1621.78 3932.09 1627.56 3947.04 1628.62C3948.74 1628.74 3950.47 1628.81 3952.17 1628.81C3980.88 1628.81 4006.68 1611.31 4016.35 1585.26C4031.5 1544.48 4008.81 1503.1 3962.42 1486.85C3946.82 1481.39 3930.48 1478.62 3913.84 1478.62C3873.65 1478.62 3834.78 1495.01 3807.18 1523.61C3783.38 1548.3 3767.38 1577.99 3751.89 1606.71C3736.27 1635.69 3713.51 1660.08 3684.27 1679.17C3665.92 1691.16 3638.36 1698.02 3608.67 1698.02C3562.3 1698.02 3521.85 1682.05 3500.49 1655.28C3467.8 1614.29 3476.46 1555.68 3519.4 1527.3C3532.92 1518.36 3550.21 1513.45 3568.13 1513.45C3592.58 1513.45 3614.49 1522.44 3626.73 1537.49C3637.76 1551.07 3640.72 1566.47 3635.27 1582.04C3629.82 1597.62 3613.41 1608.1 3594.44 1608.1C3593 1608.1 3591.56 1608.03 3590.12 1607.91C3570.84 1606.25 3562.06 1594.94 3557.55 1582.24C3556.76 1583.12 3556.16 1583.94 3555.79 1584.74C3548.32 1600.59 3556.31 1617.37 3574.77 1624.64C3582.14 1627.56 3589.98 1629.03 3598.07 1629.03C3623.94 1629.03 3647.9 1614.25 3659.11 1591.35C3668.82 1571.5 3669.21 1550 3660.2 1530.83C3650.97 1511.2 3632.73 1495.71 3608.86 1487.23C3592.33 1481.35 3575.66 1478.37 3559.29 1478.37C3545.63 1478.37 3531.83 1480.44 3518.28 1484.54C3516.82 1485.3 3515.24 1485.91 3513.59 1486.35C3511.83 1486.83 3510.04 1487.41 3507.92 1488.15C3507.41 1488.35 3506.88 1488.54 3506.35 1488.73C3505.58 1489.01 3504.82 1489.29 3504.04 1489.6C3488.63 1495.66 3475.43 1504.67 3475.3 1504.76C3460.92 1514.93 3447.69 1528.27 3436.04 1544.31C3423.29 1561.87 3412.96 1580.01 3400.79 1601.92C3386.3 1627.98 3369.05 1649.2 3348.07 1666.82C3322.85 1687.97 3292.8 1698.26 3256.2 1698.26C3246.36 1698.26 3235.81 1697.48 3224.85 1695.97C3182.57 1690.13 3152.61 1670.81 3135.79 1638.53C3127 1621.64 3124.42 1599.6 3128.87 1579.55C3134.06 1556.12 3148.41 1536.71 3169.24 1524.92C3181.93 1517.73 3197.92 1513.77 3214.23 1513.77C3238.6 1513.77 3259.98 1522.33 3271.43 1536.68C3277.46 1544.22 3281.82 1554.35 3283.41 1564.5C3285.03 1574.93 3281.51 1585.77 3273.77 1594.27C3266.42 1602.32 3256.03 1607.41 3245.26 1608.23C3243.78 1608.34 3242.31 1608.41 3240.88 1608.41C3229.6 1608.41 3211.36 1604.67 3203.4 1582.34C3202.58 1583.21 3201.94 1584.01 3201.56 1584.79C3197.64 1592.65 3197.7 1601.17 3201.73 1608.78C3206.14 1617.16 3214.96 1623.63 3225.94 1626.54C3231.8 1628.09 3237.83 1628.88 3243.88 1628.88C3276.03 1628.88 3304.01 1607.42 3310.41 1577.84C3320.54 1531.07 3288.64 1490.6 3234.57 1481.63C3224.09 1479.89 3213.79 1479 3203.95 1479C3175.8 1479 3150.21 1486.19 3127.88 1500.37C3127.48 1500.8 3127.01 1501.19 3126.5 1501.52C3117.22 1507.56 3108.95 1514.62 3101.93 1522.53C3089.05 1537.03 3078.27 1553.67 3067.85 1569.76C3062.7 1577.71 3057.39 1585.94 3051.83 1593.88C3047.81 1599.62 3043.87 1605.62 3040.05 1611.43C3030.59 1625.83 3020.81 1640.73 3008.55 1653.85C2980.41 1683.95 2946.64 1698.58 2905.28 1698.58C2888.5 1698.58 2870.88 1696.19 2851.38 1691.28C2814.37 1681.97 2788.87 1659.23 2777.63 1625.49C2764.8 1586.93 2780.42 1546.5 2816.5 1524.87C2829 1517.39 2844.19 1513.42 2860.41 1513.42C2886.18 1513.42 2909.74 1523.62 2921.87 1540.04C2936.06 1559.23 2933.33 1585.51 2915.79 1598.65C2907.16 1605.11 2897.9 1608.38 2888.25 1608.38C2883.8 1608.38 2879.28 1607.67 2874.81 1606.26C2861.87 1602.19 2853.43 1594.21 2850.09 1583.02C2849.55 1583.69 2849.11 1584.34 2848.81 1584.96C2845.02 1593.13 2845.35 1601.88 2849.76 1609.61C2854.53 1617.98 2863.71 1624.27 2874.9 1626.86C2880.15 1628.07 2885.54 1628.68 2890.92 1628.68C2923.54 1628.68 2952.28 1605.95 2957.81 1575.79C2962.25 1551.48 2956.68 1529.58 2941.7 1512.46C2925.67 1494.15 2899.64 1482.48 2868.39 1479.6C2862.6 1479.07 2856.85 1478.79 2851.3 1478.79C2801.41 1478.79 2760.15 1500.76 2728.68 1544.09C2715.93 1561.63 2705.61 1579.79 2693.42 1601.71C2678.95 1627.75 2661.7 1648.98 2640.7 1666.6C2615.48 1687.75 2585.44 1698.03 2548.84 1698.03C2539.01 1698.03 2528.45 1697.27 2517.49 1695.76C2475.22 1689.92 2445.25 1670.59 2428.44 1638.3C2419.64 1621.43 2417.05 1599.38 2421.5 1579.32C2426.71 1555.89 2441.05 1536.48 2461.88 1524.7C2474.58 1517.51 2490.55 1513.55 2506.87 1513.55C2531.23 1513.55 2552.62 1522.11 2564.07 1536.46C2570.09 1543.99 2574.45 1554.14 2576.04 1564.28C2577.66 1574.7 2574.15 1585.55 2566.4 1594.05C2559.06 1602.1 2548.67 1607.18 2537.9 1608.01C2536.42 1608.13 2534.95 1608.18 2533.52 1608.18C2522.24 1608.18 2504 1604.44 2496.05 1582.11C2495.22 1582.99 2494.58 1583.8 2494.19 1584.57C2490.28 1592.42 2490.34 1600.95 2494.36 1608.57C2498.78 1616.95 2507.61 1623.41 2518.57 1626.32C2524.43 1627.88 2530.47 1628.67 2536.52 1628.67C2568.66 1628.67 2596.65 1607.2 2603.05 1577.61C2613.17 1530.84 2581.28 1490.39 2527.21 1481.42C2516.52 1479.64 2506.04 1478.74 2496.04 1478.74C2451 1478.74 2413.46 1496.64 2384.47 1531.94C2369.82 1549.78 2357.89 1570.13 2346.35 1589.81C2342.56 1596.25 2338.67 1602.91 2334.7 1609.41C2315.09 1641.62 2288.56 1676.55 2240.4 1691.38C2225.23 1696.06 2208.14 1698.52 2190.97 1698.52C2144.87 1698.52 2105.48 1681.93 2082.91 1653C2053.64 1615.48 2060.64 1559.65 2098.19 1531.09C2113.1 1519.76 2132.47 1513.51 2152.73 1513.51C2166.78 1513.51 2180.55 1516.58 2192.53 1522.41C2215.33 1533.46 2227.5 1560.04 2219.66 1581.65C2213.91 1597.47 2197.34 1608.11 2178.43 1608.11C2177.29 1608.11 2176.15 1608.07 2175.02 1607.98C2158.3 1606.82 2146.23 1597.85 2141.14 1583.06C2140.33 1584.07 2139.7 1585.06 2139.35 1586.01C2132.8 1603.72 2142.81 1620.31 2163.67 1626.31C2169.68 1628.04 2175.92 1628.92 2182.2 1628.92C2208.22 1628.92 2232.27 1614.14 2243.46 1591.28C2254.27 1569.24 2253.5 1545.77 2241.29 1525.22C2228.06 1502.92 2202.73 1486.89 2171.8 1481.19C2162.32 1479.44 2152.71 1478.55 2143.25 1478.55C2095.68 1478.55 2051.99 1500.84 2023.39 1539.68C2011.91 1555.27 2001.98 1572.31 1992.38 1588.81C1988.15 1596.08 1983.78 1603.61 1979.31 1610.95C1948.69 1661.19 1917.65 1678.74 1896.96 1687.56C1880.72 1694.48 1859.84 1698.3 1838.13 1698.3C1789.31 1698.3 1747.32 1680.07 1725.79 1649.55C1700.27 1613.35 1706 1551.37 1751.64 1525.72C1766.27 1517.5 1781.65 1513.32 1797.34 1513.32C1809.66 1513.32 1822.29 1515.91 1834.87 1521.01C1857.71 1530.27 1871.07 1553.48 1866.64 1576.21C1863.11 1594.35 1844.89 1608.03 1824.25 1608.03C1824.21 1608.03 1823.92 1608.03 1823.88 1608.03C1805.59 1607.88 1792.22 1598.61 1786.98 1582.86C1781.91 1589.35 1781.05 1598.96 1785.53 1608.14C1791.61 1620.63 1808.48 1629.02 1827.5 1629.02C1830.22 1629.02 1832.98 1628.84 1835.69 1628.49C1864.88 1624.82 1890.17 1602.02 1894.52 1575.48C1898.57 1550.76 1892.67 1528.72 1877.44 1511.75C1861.16 1493.6 1835.24 1482.15 1804.46 1479.52C1798.98 1479.05 1793.54 1478.82 1788.28 1478.82C1737.85 1478.82 1696.64 1500.61 1665.78 1543.59C1652.27 1562.4 1640.68 1582.91 1629.47 1602.76C1629.35 1602.97 1628.38 1604.68 1628.26 1604.9C1609.68 1637.77 1586.18 1662.64 1556.41 1680.91C1538.73 1691.77 1512.36 1698.01 1484.08 1698.01C1437.06 1698.01 1396.31 1681.7 1375.07 1654.38C1346.18 1617.22 1350.95 1563.13 1385.72 1533.78C1401.27 1520.66 1421.81 1513.42 1443.55 1513.42C1456.4 1513.42 1469.2 1516.08 1480.55 1521.12C1503.29 1531.21 1516.5 1554.4 1511.94 1576.29C1508.1 1594.75 1490.32 1608.14 1469.67 1608.14C1469.08 1608.14 1468.5 1608.13 1467.91 1608.11C1450.44 1607.48 1437.39 1597.9 1432.35 1582.56C1431.88 1583.12 1431.47 1583.69 1431.14 1584.21C1427.63 1589.69 1427.04 1597.35 1429.55 1604.71C1434.51 1619.22 1452.05 1628.96 1473.18 1628.96C1476.43 1628.96 1479.75 1628.73 1483.04 1628.27C1509.95 1624.53 1534.83 1601.87 1539.68 1576.69C1544.41 1552.03 1538.76 1529.81 1523.32 1512.42C1506.67 1493.68 1479.27 1481.63 1448.16 1479.37C1443.48 1479.01 1438.82 1478.85 1434.29 1478.85C1382.01 1478.85 1340.98 1501.05 1308.87 1546.7C1297.68 1562.6 1287.92 1579.85 1278.49 1596.52C1276.78 1599.55 1275.07 1602.56 1273.36 1605.57C1257.39 1633.57 1233.32 1668.14 1188.52 1687.1C1171.14 1694.46 1149.54 1698.51 1127.69 1698.51C1103.02 1698.51 1079.43 1693.56 1059.48 1684.21C1036.77 1673.57 1019.52 1657.36 1009.59 1637.33C1003.83 1625.71 1000.9 1613.21 1000.76 1600.66C1000.76 1616.83 1000.76 1697.65 1000.76 1843.14L5960.6 1843.14L5960.6 1501.32" id="aXbtkBbpm"></path><path d="M1061.3 1624.3C1070.04 1621.49 1079.17 1620.08 1088.43 1620.08C1121.64 1620.08 1149.84 1637.89 1157.01 1663.4C1160.79 1676.87 1157.71 1690.44 1148.55 1700.67C1140.33 1709.84 1128.04 1715.1 1114.83 1715.1C1113.63 1715.1 1112.4 1715.06 1111.19 1714.98C1092.23 1713.64 1083.05 1702.63 1077.81 1689.46C1077 1690.44 1076.39 1691.37 1076.04 1692.23C1072.08 1702.17 1073.12 1711.98 1078.97 1719.85C1085.65 1728.83 1098.05 1734.6 1112.99 1735.66C1114.7 1735.79 1116.44 1735.85 1118.14 1735.85C1146.85 1735.85 1172.64 1718.35 1182.31 1692.3C1197.46 1651.53 1174.78 1610.14 1128.38 1593.9C1112.79 1588.44 1096.44 1585.66 1079.8 1585.66C1051.59 1585.66 1024.04 1593.75 1000.57 1608.46C1000.57 1618.19 1000.57 1696.1 1000.57 1705.84C1000.71 1693.29 1003.64 1680.73 1009.39 1668.98C1019.91 1647.54 1038.34 1631.66 1061.3 1624.3" id="ibHhH6tyQ"></path><path d="M5960.23 309.54C5955.63 311.64 5952.86 312.86 5950.12 314.11C5917.55 329.23 5884.27 330.21 5850.92 317.25C5804.41 299.22 5783.81 251.94 5803.09 208.92C5817.87 176.01 5855.15 160.22 5886.33 173.64C5905.78 182 5914.67 201.75 5906.59 220.49C5904.56 225.15 5899.59 228.71 5894.51 234.42C5891 212.74 5883.22 203.85 5869.28 202.53C5855.08 201.17 5841.48 209.22 5837.25 222.48C5833.09 235.47 5835.39 247.88 5843.71 259.08C5860.86 282.08 5901.62 286.07 5927.56 267.36C5962.6 242.1 5968.72 190.18 5942.58 154.43C5909.84 109.69 5828.32 107.18 5791.83 133.16C5766.94 150.91 5748.03 173.1 5734.84 199.82C5720.87 228.13 5706.87 256.44 5685.46 280.62C5648.69 322.22 5591.87 336.84 5541.61 317.62C5497.34 300.71 5475.83 257.83 5490.31 215.31C5500.42 185.68 5528.12 166.91 5558.29 169.28C5588.39 171.61 5606.01 194.34 5596.74 219.71C5594.92 224.61 5590.05 228.47 5585.21 234.52C5580.34 212.27 5572.56 203.58 5558.73 202.49C5536.51 200.8 5520.34 221.06 5526.09 243.38C5533.33 271.59 5568.74 287.08 5600.5 275.99C5641.08 261.78 5660.53 211.56 5641.86 170.4C5616.29 114.12 5539.38 105.73 5494.87 126.26C5461.08 141.88 5440.28 169.72 5423.91 201.04C5413.9 220.18 5404.26 239.6 5392.53 257.76C5363.24 303.18 5322.01 329.83 5264.03 325.23C5210.63 321.01 5167.24 283.09 5177.58 224.48C5182.32 197.52 5206.1 173.74 5232.99 169.65C5258.45 165.8 5281.55 177.33 5287.68 196.91C5292.55 212.44 5286.29 227.86 5273.64 231.04C5273.4 230.09 5273.13 229.18 5273 228.23C5270.97 212.5 5261.36 202.9 5247.06 202.36C5231.84 201.75 5218.65 212.23 5215.8 227.18C5212.35 245.28 5222.26 264.25 5239.48 272.61C5264.07 284.48 5294.37 280.08 5314.33 261.68C5342.91 235.37 5345.68 187.48 5322.72 155.21C5290.48 110.02 5209.82 107.62 5173.97 131.64C5146.98 149.73 5127.9 173.68 5113.39 201.65C5103.01 221.7 5092.66 241.9 5080.21 260.8C5050.79 305.55 5008.98 330.38 4952.19 325.1C4898.96 320.13 4858.4 283.4 4867.06 225.8C4871.32 197.52 4896.02 173.37 4924.56 169.45C4946.92 166.37 4968.53 176.21 4975.97 192.92C4982.9 208.41 4977.86 225.7 4963.76 231.78C4963.25 229.65 4962.85 228.47 4962.64 227.22C4960.21 211.42 4950.6 202.56 4935.82 202.43C4921.04 202.32 4907.99 212.94 4905.45 227.18C4902.2 245.41 4911.74 264.86 4929.26 272.61C4951.72 282.55 4973.94 281.64 4995.28 268.55C5032.93 245.48 5035.09 189.64 5015.68 159.57C4985.41 112.73 4913.23 108.06 4875.05 125.82C4843.05 140.73 4822.55 166.74 4806.15 196.07C4793.33 219 4781.97 242.81 4767.29 264.59C4734.95 312.52 4682.83 333.99 4630 323.37C4571.42 311.6 4540 258.57 4562.26 208.99C4576.16 178.07 4609.91 162.08 4640.79 171.78C4662.47 178.61 4673.6 198.13 4666.6 218.76C4664.84 223.97 4659.7 228.1 4656.11 232.73C4653.24 229.62 4653.04 228.03 4652.77 226.44C4650.09 211.96 4641.37 203.47 4628.11 202.46C4613.9 201.38 4600.68 209.87 4596.35 222.89C4590.5 240.58 4599.66 262.46 4616.78 271.49C4640.39 284 4670.86 280.93 4691.22 264.02C4721.73 238.72 4726.7 189.13 4703.4 156.56C4674.41 115.98 4615.16 108.57 4573.82 122.47C4535.88 135.22 4513.49 164.78 4495.19 197.52C4481.12 222.79 4468.54 249.2 4451.15 272.27C4419.05 314.92 4374.36 333.18 4319.2 323.2C4267.76 313.87 4237.65 271.59 4247.2 223.46C4254.8 185.14 4293.38 161.09 4330.13 171.75C4353.16 178.41 4365.12 200.57 4355.91 220.76C4353.83 225.29 4348.89 228.64 4343.54 234.39C4340.85 211.25 4329.34 200.94 4311.78 202.43C4295.83 203.78 4282.41 219.68 4284.82 236.52C4285.98 244.7 4289.17 253.43 4294.07 260.13C4309.67 281.43 4348.6 285.12 4373.83 269.56C4410.56 246.87 4414.15 198.16 4400.52 169.58C4386.42 140.13 4361.32 123.62 4327.93 118.61C4289.96 112.9 4255.21 118.01 4226.12 144.62C4207.16 162.01 4192.91 182.2 4181.46 204.66C4171.83 223.6 4162.03 242.61 4150.23 260.33C4120.4 305.18 4078.58 330.78 4021.26 325C3964.36 319.28 3927.66 279.74 3936.78 225.39C3943.26 186.73 3981.02 161.81 4018.13 171.17C4041.73 177.13 4054.56 199.42 4045.7 220.25C4043.72 224.88 4038.86 228.43 4035.32 232.49C4032.58 229.31 4032.31 228.06 4032.19 226.78C4031.05 215.55 4025.1 207.53 4014 203.71C4003.26 200.02 3993.6 202.87 3985.14 209.77C3972.37 220.22 3970.62 241.36 3981.16 256.91C3997.11 280.45 4037.25 286.58 4063.41 269.46C4092.14 250.69 4105.09 215.21 4094.6 180.88C4085.68 151.62 4065.43 131.06 4034.92 122.67C3984.2 108.77 3940.15 115 3904.87 156.19C3890.22 173.3 3879.74 193.7 3867.55 212.71C3852.84 235.67 3840.45 260.33 3823.27 281.43C3816.58 289.65 3808.86 296.79 3800.4 302.78C3800.41 302.84 3800.41 302.95 3800.42 303.01C3772.7 322.73 3739.17 330.04 3700.3 323C3648.86 313.67 3618.75 271.39 3628.3 223.23C3635.9 184.94 3674.48 160.89 3711.22 171.51C3734.26 178.21 3746.22 200.36 3737.01 220.55C3734.93 225.09 3729.98 228.43 3724.63 234.18C3721.95 211.05 3710.45 200.73 3692.89 202.22C3676.94 203.54 3663.51 219.47 3665.92 236.32C3667.09 244.47 3670.27 253.19 3675.18 259.92C3690.76 281.23 3729.71 284.92 3754.93 269.33C3791.65 246.67 3795.25 197.96 3781.6 169.35C3767.53 139.89 3742.42 123.42 3709.02 118.41C3671.06 112.66 3636.31 117.8 3607.23 144.42C3588.26 161.81 3574.01 182 3562.56 204.46C3552.92 223.4 3543.13 242.4 3531.33 260.13C3520.88 275.82 3508.92 289.11 3495.37 299.56C3495.37 299.56 3483.25 308.7 3468.85 314.85C3467.62 315.39 3466.4 315.87 3465.16 316.37C3463.31 317.05 3461.45 317.76 3459.58 318.3C3458.39 318.64 3457.38 319.11 3456.49 319.69C3428.47 329.12 3400.01 328.35 3371.47 317.25C3324.97 299.22 3304.38 251.94 3323.66 208.92C3338.43 176.01 3375.69 160.22 3406.88 173.64C3426.33 182 3435.22 201.75 3427.13 220.49C3425.11 225.15 3420.16 228.71 3415.07 234.42C3411.53 212.74 3403.79 203.85 3389.84 202.53C3375.63 201.17 3362.05 209.22 3357.8 222.48C3353.63 235.47 3355.93 247.88 3364.26 259.08C3381.4 282.08 3422.17 286.07 3448.14 267.36C3483.15 242.1 3489.28 190.18 3463.14 154.43C3430.4 109.69 3348.87 107.18 3312.4 133.16C3287.49 150.91 3268.59 173.1 3255.39 199.82C3241.41 228.13 3227.41 256.44 3206.03 280.62C3169.25 322.22 3112.42 336.84 3062.16 317.62C3017.91 300.71 2996.4 257.83 3010.87 215.31C3020.96 185.68 3048.67 166.91 3078.84 169.28C3108.97 171.61 3126.57 194.34 3117.28 219.71C3115.48 224.61 3110.59 228.47 3105.76 234.52C3100.89 212.27 3093.11 203.58 3079.27 202.49C3057.05 200.8 3040.88 221.06 3046.63 243.38C3053.9 271.59 3089.3 287.08 3121.05 275.99C3161.62 261.78 3181.08 211.56 3162.4 170.4C3136.85 114.12 3059.94 105.73 3015.43 126.26C2981.65 141.88 2960.83 169.72 2944.46 201.04C2934.46 220.18 2924.8 239.6 2913.08 257.76C2883.79 303.18 2842.57 329.83 2784.6 325.23C2731.17 321.01 2687.8 283.09 2698.12 224.48C2702.87 197.52 2726.67 173.74 2753.55 169.65C2778.99 165.8 2802.11 177.33 2808.24 196.91C2813.11 212.44 2806.84 227.86 2794.19 231.04C2793.97 230.09 2793.67 229.18 2793.54 228.23C2791.53 212.5 2781.91 202.9 2767.6 202.36C2752.39 201.75 2739.19 212.23 2736.34 227.18C2732.89 245.28 2742.81 264.25 2760.05 272.61C2784.61 284.48 2814.93 280.08 2834.89 261.68C2863.46 235.37 2866.24 187.48 2843.27 155.21C2811.06 110.02 2730.38 107.62 2694.53 131.64C2667.51 149.73 2648.44 173.68 2633.95 201.65C2623.57 221.7 2613.21 241.9 2600.78 260.8C2571.33 305.55 2529.54 330.38 2472.74 325.1C2419.53 320.13 2378.97 283.4 2387.63 225.8C2391.87 197.52 2416.58 173.37 2445.1 169.45C2467.48 166.37 2489.07 176.21 2496.51 192.92C2503.45 208.41 2498.43 225.7 2484.32 231.78C2483.79 229.65 2483.39 228.47 2483.19 227.22C2480.75 211.42 2471.17 202.56 2456.38 202.43C2441.61 202.32 2428.55 212.94 2426.01 227.18C2422.76 245.41 2432.29 264.86 2449.81 272.61C2472.28 282.55 2494.49 281.64 2515.82 268.55C2553.48 245.48 2555.66 189.64 2536.23 159.57C2505.96 112.73 2433.79 108.06 2395.61 125.82C2363.61 140.73 2343.09 166.74 2326.7 196.07C2313.9 219 2302.53 242.81 2287.85 264.59C2255.49 312.52 2203.38 333.99 2150.57 323.37C2091.97 311.6 2060.56 258.57 2082.82 208.99C2096.7 178.07 2130.46 162.08 2161.36 171.78C2183.03 178.61 2194.16 198.13 2187.16 218.76C2185.4 223.97 2180.25 228.1 2176.66 232.73C2173.79 229.62 2173.59 228.03 2173.31 226.44C2170.65 211.96 2161.9 203.47 2148.66 202.46C2134.45 201.38 2121.25 209.87 2116.91 222.89C2111.04 240.58 2120.23 262.46 2137.33 271.49C2160.93 284 2191.41 280.93 2211.78 264.02C2242.27 238.72 2247.26 189.13 2223.96 156.56C2194.95 115.98 2135.71 108.57 2094.36 122.47C2056.42 135.22 2034.03 164.78 2015.75 197.52C2001.67 222.79 1989.08 249.2 1971.72 272.27C1939.61 314.92 1894.91 333.18 1839.75 323.2C1788.32 313.87 1758.2 271.59 1767.75 223.46C1775.35 185.14 1813.93 161.09 1850.68 171.75C1873.71 178.41 1885.68 200.57 1876.46 220.76C1874.39 225.29 1869.44 228.64 1864.08 234.39C1861.4 211.25 1849.9 200.94 1832.34 202.43C1816.39 203.78 1802.96 219.68 1805.37 236.52C1806.54 244.7 1809.72 253.43 1814.63 260.13C1830.22 281.43 1869.16 285.12 1894.39 269.56C1931.1 246.87 1934.7 198.16 1921.05 169.58C1906.99 140.13 1881.88 123.62 1848.48 118.61C1810.51 112.9 1775.76 118.01 1746.68 144.62C1727.71 162.01 1713.46 182.2 1702.02 204.66C1692.37 223.6 1682.58 242.61 1670.78 260.33C1640.94 305.18 1599.13 330.78 1541.82 325C1484.91 319.28 1448.22 279.74 1457.33 225.39C1463.81 186.73 1501.57 161.81 1538.67 171.17C1562.28 177.13 1575.12 199.42 1566.25 220.25C1564.27 224.88 1559.41 228.43 1555.88 232.49C1553.14 229.31 1552.86 228.06 1552.74 226.78C1551.61 215.55 1545.65 207.53 1534.55 203.71C1523.82 200.02 1514.16 202.87 1505.7 209.77C1492.92 220.22 1491.17 241.36 1501.71 256.91C1517.66 280.45 1557.81 286.58 1583.96 269.46C1612.7 250.69 1625.64 215.21 1615.16 180.88C1606.23 151.62 1585.98 131.06 1555.48 122.67C1504.75 108.77 1460.7 115 1425.42 156.19C1410.77 173.3 1400.29 193.7 1388.1 212.71C1373.39 235.67 1361.01 260.33 1343.82 281.43C1337.14 289.65 1329.41 296.79 1320.95 302.78C1320.96 302.84 1320.97 302.95 1320.97 303.01C1293.26 322.73 1259.72 330.04 1220.85 323C1169.42 313.67 1139.31 271.39 1148.85 223.23C1156.45 184.94 1195.03 160.89 1231.78 171.51C1254.81 178.21 1266.78 200.36 1257.56 220.55C1255.49 225.09 1250.54 228.43 1245.18 234.18C1242.5 211.05 1231 200.73 1213.44 202.22C1197.49 203.54 1184.06 219.47 1186.47 236.32C1187.64 244.47 1190.82 253.19 1195.73 259.92C1211.32 281.23 1250.26 284.92 1275.49 269.33C1312.2 246.67 1315.8 197.96 1302.15 169.35C1288.09 139.89 1262.98 123.42 1229.58 118.41C1191.61 112.66 1156.87 117.8 1127.78 144.42C1108.81 161.81 1094.56 182 1083.12 204.46C1073.47 223.4 1063.68 242.4 1051.88 260.13C1041.43 275.82 1029.47 289.11 1015.92 299.56C1015.92 299.56 1009.47 304.47 1000.38 309.51C1000.38 318.96 1000.38 366.23 1000.38 451.32C3976.29 451.32 5629.57 451.32 5960.23 451.32C5960.23 451.32 5960.23 319.92 5960.23 309.54" id="a1Otrlhp0Y"></path><path d="M5960.33 3026.04C5960.37 3019.76 5960.43 3013.5 5960.43 3009.01C5955.8 3010.79 5953.06 3011.84 5950.32 3012.92C5917.72 3025.86 5884.47 3026.7 5851.09 3015.63C5804.58 3000.19 5783.98 2959.69 5803.3 2922.88C5818.04 2894.68 5855.31 2881.16 5886.5 2892.65C5905.95 2899.83 5914.84 2916.72 5906.76 2932.76C5904.73 2936.77 5899.79 2939.79 5894.72 2944.7C5891.17 2926.13 5883.42 2918.52 5869.49 2917.38C5855.25 2916.23 5841.68 2923.12 5837.42 2934.46C5833.26 2945.61 5835.56 2956.23 5843.88 2965.81C5861.03 2985.5 5901.82 2988.93 5927.76 2972.89C5962.77 2951.27 5968.92 2906.82 5942.78 2876.22C5910.04 2837.9 5828.49 2835.77 5792 2858.01C5767.11 2873.21 5748.2 2892.21 5735.01 2915.07C5721.01 2939.31 5707.04 2963.55 5685.63 2984.26C5648.83 3019.87 5592.01 3032.38 5541.75 3015.94C5497.48 3001.46 5476 2964.73 5490.44 2928.34C5500.55 2902.98 5528.25 2886.91 5558.42 2888.92C5588.56 2890.93 5606.15 2910.38 5596.88 2932.1C5595.09 2936.29 5590.18 2939.6 5585.35 2944.8C5580.51 2925.73 5572.7 2918.29 5558.86 2917.37C5536.64 2915.9 5520.47 2933.25 5526.22 2952.37C5533.5 2976.52 5568.91 2989.79 5600.63 2980.28C5641.22 2968.12 5660.7 2925.11 5642 2889.87C5616.46 2841.72 5539.52 2834.51 5495.01 2852.11C5461.25 2865.46 5440.42 2889.3 5424.01 2916.11C5414.04 2932.5 5404.36 2949.12 5392.66 2964.68C5363.37 3003.57 5322.14 3026.38 5264.14 3022.45C5210.7 3018.82 5167.34 2986.35 5177.65 2936.17C5182.42 2913.11 5206.2 2892.74 5233.09 2889.26C5258.56 2885.96 5281.66 2895.81 5287.81 2912.58C5292.68 2925.88 5286.39 2939.07 5273.74 2941.8C5273.54 2940.99 5273.23 2940.2 5273.1 2939.4C5271.07 2925.94 5261.46 2917.71 5247.16 2917.24C5231.94 2916.73 5218.75 2925.7 5215.87 2938.5C5212.46 2953.98 5222.37 2970.24 5239.58 2977.39C5264.17 2987.57 5294.47 2983.78 5314.46 2968.03C5343.01 2945.51 5345.82 2904.49 5322.82 2876.9C5290.62 2838.2 5209.92 2836.13 5174.07 2856.69C5147.04 2872.19 5128 2892.7 5113.49 2916.64C5103.11 2933.8 5092.76 2951.1 5080.31 2967.27C5050.85 3005.59 5009.08 3026.85 4952.26 3022.31C4899.03 3018.06 4858.47 2986.63 4867.13 2937.3C4871.39 2913.09 4896.08 2892.42 4924.63 2889.06C4947.02 2886.42 4968.6 2894.86 4976.04 2909.15C4982.97 2922.44 4977.97 2937.23 4963.83 2942.42C4963.32 2940.63 4962.92 2939.59 4962.71 2938.54C4960.28 2925.01 4950.71 2917.42 4935.89 2917.31C4921.11 2917.2 4908.09 2926.31 4905.52 2938.5C4902.27 2954.1 4911.81 2970.76 4929.33 2977.39C4951.79 2985.9 4974.01 2985.11 4995.35 2973.92C5033.03 2954.16 5035.19 2906.37 5015.75 2880.62C4985.47 2840.51 4913.3 2836.5 4875.11 2851.73C4843.12 2864.47 4822.59 2886.76 4806.22 2911.85C4793.4 2931.49 4782.03 2951.88 4767.36 2970.52C4734.99 3011.56 4682.87 3029.94 4630.07 3020.86C4571.46 3010.78 4540.04 2965.37 4562.29 2922.91C4576.16 2896.46 4609.95 2882.77 4640.83 2891.08C4662.51 2896.91 4673.63 2913.61 4666.63 2931.3C4664.91 2935.75 4659.73 2939.29 4656.15 2943.25C4653.27 2940.57 4653.1 2939.21 4652.8 2937.86C4650.13 2925.46 4641.4 2918.19 4628.14 2917.33C4613.94 2916.4 4600.75 2923.69 4596.38 2934.82C4590.53 2949.96 4599.7 2968.69 4616.81 2976.44C4640.42 2987.13 4670.89 2984.51 4691.26 2970.03C4721.76 2948.36 4726.73 2905.93 4703.43 2878.02C4674.45 2843.29 4615.19 2836.97 4573.82 2848.86C4535.91 2859.77 4513.49 2885.07 4495.22 2913.11C4481.15 2934.73 4468.54 2957.33 4451.19 2977.08C4419.09 3013.6 4374.37 3029.26 4319.2 3020.7C4267.76 3012.72 4237.64 2976.53 4247.19 2935.3C4254.79 2902.52 4293.38 2881.92 4330.13 2891.03C4353.16 2896.74 4365.13 2915.71 4355.91 2933C4353.83 2936.89 4348.89 2939.75 4343.54 2944.66C4340.85 2924.86 4329.35 2916.04 4311.78 2917.3C4295.83 2918.45 4282.41 2932.07 4284.81 2946.49C4285.98 2953.48 4289.17 2960.96 4294.07 2966.7C4309.67 2984.94 4348.61 2988.1 4373.84 2974.77C4410.56 2955.36 4414.15 2913.65 4400.52 2889.17C4386.45 2863.95 4361.33 2849.85 4327.93 2845.54C4289.96 2840.64 4255.2 2845.04 4226.12 2867.84C4207.14 2882.69 4192.9 2899.99 4181.45 2919.23C4171.8 2935.42 4162 2951.71 4150.2 2966.88C4120.37 3005.26 4078.55 3027.2 4021.22 3022.25C3964.32 3017.35 3927.61 2983.5 3936.74 2936.95C3943.23 2903.87 3980.98 2882.52 4018.09 2890.53C4041.7 2895.63 4054.53 2914.72 4045.67 2932.55C4043.68 2936.54 4038.82 2939.56 4035.3 2943.04C4032.56 2940.32 4032.27 2939.24 4032.15 2938.15C4031.02 2928.53 4025.07 2921.69 4013.97 2918.41C4003.24 2915.27 3993.57 2917.66 3985.1 2923.59C3972.33 2932.52 3970.57 2950.62 3981.12 2963.95C3997.06 2984.09 4037.22 2989.35 4063.38 2974.71C4092.12 2958.61 4105.06 2928.26 4094.59 2898.87C4085.65 2873.8 4065.39 2856.2 4034.9 2849.04C3984.15 2837.12 3940.11 2842.46 3904.82 2877.73C3890.17 2892.38 3879.68 2909.83 3867.5 2926.11C3852.79 2945.76 3840.4 2966.88 3823.22 2984.94C3816.53 2991.98 3808.81 2998.08 3800.33 3003.21C3800.35 3003.29 3800.35 3003.35 3800.36 3003.43C3772.64 3020.3 3739.11 3026.55 3700.23 3020.52C3648.78 3012.54 3618.68 2976.34 3628.22 2935.13C3635.82 2902.33 3674.4 2881.73 3711.16 2890.85C3734.19 2896.55 3746.15 2915.53 3736.93 2932.83C3734.87 2936.71 3729.92 2939.56 3724.56 2944.48C3721.87 2924.67 3710.37 2915.86 3692.81 2917.12C3676.87 2918.27 3663.43 2931.9 3665.84 2946.31C3667.02 2953.31 3670.19 2960.77 3675.1 2966.52C3690.7 2984.75 3729.63 2987.93 3754.87 2974.58C3791.59 2955.17 3795.2 2913.48 3781.54 2889C3767.47 2863.77 3742.36 2849.66 3708.96 2845.36C3670.99 2840.46 3636.24 2844.85 3607.14 2867.65C3588.17 2882.52 3573.92 2899.8 3562.47 2919.04C3552.84 2935.25 3543.04 2951.53 3531.24 2966.71C3520.78 2980.14 3508.82 2991.52 3495.27 3000.48C3495.27 3000.48 3483.15 3008.28 3468.76 3013.56C3467.52 3014.03 3466.3 3014.41 3465.06 3014.85C3463.21 3015.45 3461.35 3016.02 3459.48 3016.5C3458.29 3016.8 3457.28 3017.21 3456.39 3017.7C3428.37 3025.77 3399.91 3025.1 3371.36 3015.63C3324.86 3000.19 3304.25 2959.69 3323.55 2922.88C3338.33 2894.68 3375.57 2881.16 3406.77 2892.65C3426.23 2899.83 3435.12 2916.72 3427.03 2932.76C3425.01 2936.77 3420.06 2939.79 3414.97 2944.7C3411.43 2926.13 3403.68 2918.52 3389.74 2917.38C3375.53 2916.23 3361.94 2923.12 3357.69 2934.46C3353.52 2945.61 3355.83 2956.23 3364.17 2965.81C3381.3 2985.5 3422.07 2988.93 3448.04 2972.89C3483.06 2951.27 3489.18 2906.82 3463.04 2876.22C3430.31 2837.9 3348.76 2835.77 3312.29 2858.01C3287.38 2873.21 3268.48 2892.21 3255.28 2915.07C3241.28 2939.31 3227.29 2963.55 3205.9 2984.26C3169.11 3019.87 3112.28 3032.38 3062.03 3015.94C3017.77 3001.46 2996.25 2964.73 3010.72 2928.34C3020.81 2902.98 3048.53 2886.91 3078.7 2888.92C3108.83 2890.93 3126.43 2910.38 3117.14 2932.1C3115.34 2936.29 3110.46 2939.6 3105.62 2944.8C3100.76 2925.73 3092.97 2918.29 3079.12 2917.37C3056.9 2915.9 3040.73 2933.25 3046.49 2952.37C3053.75 2976.52 3089.16 2989.79 3120.92 2980.28C3161.5 2968.12 3180.96 2925.11 3162.26 2889.87C3136.72 2841.72 3059.79 2834.51 3015.28 2852.11C2981.5 2865.46 2960.68 2889.3 2944.31 2916.11C2934.31 2932.5 2924.64 2949.12 2912.92 2964.68C2883.63 3003.57 2842.4 3026.38 2784.42 3022.45C2730.99 3018.82 2687.61 2986.35 2697.93 2936.17C2702.68 2913.11 2726.48 2892.74 2753.37 2889.26C2778.82 2885.96 2801.93 2895.81 2808.08 2912.58C2812.94 2925.88 2806.67 2939.07 2794.03 2941.8C2793.79 2940.99 2793.49 2940.2 2793.37 2939.4C2791.36 2925.94 2781.73 2917.71 2767.42 2917.24C2752.21 2916.73 2739.01 2925.7 2736.17 2938.5C2732.72 2953.98 2742.63 2970.24 2759.86 2977.39C2784.43 2987.57 2814.75 2983.78 2834.72 2968.03C2863.3 2945.51 2866.08 2904.49 2843.1 2876.9C2810.89 2838.2 2730.19 2836.13 2694.35 2856.69C2667.33 2872.19 2648.25 2892.7 2633.76 2916.64C2623.38 2933.8 2613.01 2951.1 2600.57 2967.27C2571.13 3005.59 2529.34 3026.85 2472.53 3022.31C2419.31 3018.06 2378.75 2986.63 2387.41 2937.3C2391.66 2913.09 2416.37 2892.42 2444.89 2889.06C2467.27 2886.42 2488.85 2894.86 2496.32 2909.15C2503.24 2922.44 2498.23 2937.23 2484.11 2942.42C2483.58 2940.63 2483.18 2939.59 2482.99 2938.54C2480.54 2925.01 2470.96 2917.42 2456.17 2917.31C2441.38 2917.2 2428.34 2926.31 2425.8 2938.5C2422.54 2954.1 2432.08 2970.76 2449.6 2977.39C2472.08 2985.9 2494.28 2985.11 2515.61 2973.92C2553.28 2954.16 2555.46 2906.37 2536.03 2880.62C2505.75 2840.51 2433.57 2836.5 2395.39 2851.73C2363.39 2864.47 2342.86 2886.76 2326.48 2911.85C2313.67 2931.49 2302.31 2951.88 2287.61 2970.52C2255.25 3011.56 2203.14 3029.94 2150.32 3020.86C2091.72 3010.78 2060.3 2965.37 2082.56 2922.91C2096.45 2896.46 2130.21 2882.77 2161.11 2891.08C2182.78 2896.91 2193.92 2913.61 2186.92 2931.3C2185.16 2935.75 2180.01 2939.29 2176.42 2943.25C2173.54 2940.57 2173.35 2939.21 2173.06 2937.86C2170.4 2925.46 2161.66 2918.19 2148.41 2917.33C2134.2 2916.4 2121 2923.69 2116.66 2934.82C2110.79 2949.96 2119.98 2968.69 2137.08 2976.44C2160.68 2987.13 2191.17 2984.51 2211.55 2970.03C2242.04 2948.36 2247.02 2905.93 2223.72 2878.02C2194.7 2843.29 2135.46 2836.97 2094.11 2848.86C2056.17 2859.77 2033.77 2885.07 2015.49 2913.11C2001.41 2934.73 1988.82 2957.33 1971.45 2977.08C1939.34 3013.6 1894.63 3029.26 1839.47 3020.7C1788.03 3012.72 1757.91 2976.53 1767.46 2935.3C1775.06 2902.52 1813.65 2881.92 1850.4 2891.03C1873.43 2896.74 1885.4 2915.71 1876.18 2933C1874.11 2936.89 1869.16 2939.75 1863.8 2944.66C1861.12 2924.86 1849.61 2916.04 1832.05 2917.3C1816.11 2918.45 1802.67 2932.07 1805.08 2946.49C1806.25 2953.48 1809.43 2960.96 1814.34 2966.7C1829.94 2984.94 1868.88 2988.1 1894.11 2974.77C1930.82 2955.36 1934.43 2913.65 1920.78 2889.17C1906.71 2863.95 1881.6 2849.85 1848.19 2845.54C1810.22 2840.64 1775.48 2845.04 1746.39 2867.84C1727.41 2882.69 1713.16 2899.99 1701.72 2919.23C1692.07 2935.42 1682.28 2951.71 1670.48 2966.88C1640.64 3005.26 1598.82 3027.2 1541.5 3022.25C1484.59 3017.35 1447.88 2983.5 1457.01 2936.95C1463.49 2903.87 1501.25 2882.52 1538.35 2890.53C1561.97 2895.63 1574.8 2914.72 1565.94 2932.55C1563.96 2936.54 1559.09 2939.56 1555.56 2943.04C1552.82 2940.32 1552.55 2939.24 1552.42 2938.15C1551.29 2928.53 1545.34 2921.69 1534.23 2918.41C1523.5 2915.27 1513.84 2917.66 1505.37 2923.59C1492.6 2932.52 1490.84 2950.62 1501.39 2963.95C1517.34 2984.09 1557.49 2989.35 1583.65 2974.71C1612.39 2958.61 1625.33 2928.26 1614.85 2898.87C1605.92 2873.8 1585.67 2856.2 1555.16 2849.04C1504.42 2837.12 1460.38 2842.46 1425.09 2877.73C1410.44 2892.38 1399.96 2909.83 1387.77 2926.11C1373.05 2945.76 1360.67 2966.88 1343.48 2984.94C1336.79 2991.98 1329.07 2998.08 1320.61 3003.21C1320.61 3003.29 1320.62 3003.35 1320.63 3003.43C1292.91 3020.3 1259.37 3026.55 1220.5 3020.52C1169.06 3012.54 1138.94 2976.34 1148.49 2935.13C1156.09 2902.33 1194.68 2881.73 1231.43 2890.85C1254.46 2896.55 1266.43 2915.53 1257.21 2932.83C1255.14 2936.71 1250.18 2939.56 1244.83 2944.48C1242.15 2924.67 1230.64 2915.86 1213.08 2917.12C1197.13 2918.27 1183.7 2931.9 1186.11 2946.31C1187.28 2953.31 1190.46 2960.77 1195.37 2966.52C1210.96 2984.75 1249.91 2987.93 1275.14 2974.58C1311.86 2955.17 1315.46 2913.48 1301.81 2889C1287.74 2863.77 1262.63 2849.66 1229.22 2845.36C1191.26 2840.46 1156.5 2844.85 1127.41 2867.65C1108.44 2882.52 1094.19 2899.8 1082.75 2919.04C1073.1 2935.25 1063.31 2951.53 1051.51 2966.71C1041.05 2980.14 1029.09 2991.52 1015.54 3000.48C1015.54 3000.48 1009.09 3004.66 1000 3008.98C1000 3013.05 1000 3045.64 1000 3049.71C1000.03 3049.71 1000.06 3049.71 1000.09 3049.71C1000.04 3055.98 1000 3062.24 1000 3066.73C1004.61 3064.94 1007.37 3063.9 1010.11 3062.82C1042.69 3049.88 1075.95 3049.03 1109.32 3060.12C1155.83 3075.55 1176.43 3116.05 1157.14 3152.87C1142.36 3181.05 1105.11 3194.57 1073.91 3183.09C1054.46 3175.91 1045.57 3159.03 1053.66 3142.97C1055.68 3138.97 1060.63 3135.94 1065.72 3131.04C1069.26 3149.62 1077.01 3157.23 1090.95 3158.35C1105.17 3159.52 1118.75 3152.63 1122.99 3141.28C1127.17 3130.13 1124.86 3119.51 1116.53 3109.92C1099.39 3090.24 1058.62 3086.81 1032.65 3102.85C997.64 3124.47 991.5 3168.91 1017.65 3199.51C1050.39 3237.84 1131.93 3239.97 1168.4 3217.73C1193.32 3202.53 1212.21 3183.54 1225.41 3160.67C1239.4 3136.42 1253.4 3112.19 1274.79 3091.49C1311.58 3055.87 1368.41 3043.36 1418.67 3059.79C1462.92 3074.28 1484.44 3111.01 1469.97 3147.4C1459.88 3172.76 1432.16 3188.83 1401.99 3186.82C1371.86 3184.81 1354.26 3165.36 1363.55 3143.64C1365.34 3139.44 1370.23 3136.14 1375.07 3130.94C1379.93 3150.01 1387.72 3157.45 1401.56 3158.37C1423.79 3159.84 1439.96 3142.49 1434.2 3123.37C1426.94 3099.22 1391.53 3085.95 1359.77 3095.46C1319.2 3107.62 1299.73 3150.63 1318.42 3185.86C1343.97 3234.03 1420.9 3241.23 1465.41 3223.63C1499.19 3210.28 1520.01 3186.45 1536.39 3159.61C1546.38 3143.24 1556.05 3126.62 1567.77 3111.06C1597.06 3072.17 1638.29 3049.34 1696.27 3053.28C1749.7 3056.92 1793.08 3089.38 1782.75 3139.55C1778.01 3162.63 1754.2 3183 1727.32 3186.49C1701.87 3189.78 1678.76 3179.94 1672.62 3163.17C1667.75 3149.87 1674.02 3136.67 1686.66 3133.94C1686.89 3134.74 1687.2 3135.53 1687.31 3136.34C1689.33 3149.79 1698.95 3158.01 1713.26 3158.5C1728.48 3159.02 1741.68 3150.03 1744.53 3137.24C1747.97 3121.76 1738.06 3105.48 1720.82 3098.35C1696.26 3088.17 1665.93 3091.96 1645.97 3107.7C1617.4 3130.22 1614.61 3171.24 1637.59 3198.85C1669.8 3237.54 1750.49 3239.61 1786.34 3219.04C1813.37 3203.55 1832.44 3183.04 1846.93 3159.09C1857.31 3141.93 1867.68 3124.64 1880.11 3108.47C1909.56 3070.15 1951.35 3048.88 2008.16 3053.42C2061.38 3057.67 2101.94 3089.11 2093.28 3138.43C2089.03 3162.64 2064.33 3183.32 2035.8 3186.69C2013.42 3189.32 1991.84 3180.88 1984.38 3166.59C1977.45 3153.3 1982.46 3138.51 1996.59 3133.32C1997.11 3135.12 1997.51 3136.14 1997.7 3137.21C2000.15 3150.73 2009.73 3158.31 2024.52 3158.43C2039.3 3158.54 2052.35 3149.43 2054.89 3137.23C2058.14 3121.64 2048.61 3104.98 2031.09 3098.35C2008.61 3089.84 1986.41 3090.61 1965.08 3101.81C1927.41 3121.58 1925.24 3169.37 1944.66 3195.11C1974.94 3235.23 2047.11 3239.24 2085.3 3224.02C2117.3 3211.26 2137.83 3188.98 2154.21 3163.88C2167.02 3144.26 2178.38 3123.85 2193.08 3105.21C2225.44 3064.18 2277.55 3045.8 2330.37 3054.88C2388.97 3064.95 2420.39 3110.37 2398.12 3152.82C2384.25 3179.28 2350.47 3192.97 2319.58 3184.66C2297.91 3178.83 2286.77 3162.13 2293.77 3144.44C2295.53 3139.99 2300.68 3136.44 2304.27 3132.5C2307.14 3135.17 2307.34 3136.53 2307.63 3137.87C2310.28 3150.27 2319.03 3157.55 2332.28 3158.41C2346.49 3159.33 2359.7 3152.05 2364.02 3140.9C2369.9 3125.78 2360.71 3107.05 2343.61 3099.3C2320 3088.6 2289.52 3091.23 2269.15 3105.71C2238.65 3127.37 2233.67 3169.81 2256.98 3197.71C2285.98 3232.45 2345.24 3238.77 2386.58 3226.88C2424.52 3215.97 2446.92 3190.67 2465.2 3162.63C2479.28 3141.02 2491.88 3118.39 2509.24 3098.65C2541.35 3062.14 2586.05 3046.48 2641.22 3055.04C2692.66 3063.02 2722.78 3099.21 2713.23 3140.44C2705.63 3173.22 2667.04 3193.82 2630.29 3184.71C2607.26 3179 2595.29 3160.03 2604.51 3142.73C2606.59 3138.85 2611.53 3135.99 2616.88 3131.08C2619.57 3150.88 2631.07 3159.7 2648.64 3158.44C2664.59 3157.29 2678.01 3143.65 2675.61 3129.24C2674.44 3122.26 2671.25 3114.78 2666.35 3109.04C2650.75 3090.8 2611.81 3087.63 2586.58 3100.97C2549.87 3120.38 2546.26 3162.08 2559.92 3186.56C2573.98 3211.78 2599.08 3225.89 2632.49 3230.19C2670.46 3235.09 2705.22 3230.7 2734.3 3207.91C2753.27 3193.03 2767.52 3175.75 2778.97 3156.52C2788.62 3140.32 2798.42 3124.03 2810.22 3108.85C2840.05 3070.48 2881.87 3048.54 2939.2 3053.48C2996.1 3058.39 3032.81 3092.23 3023.68 3138.78C3017.19 3171.87 2979.44 3193.22 2942.33 3185.2C2918.72 3180.1 2905.89 3161.03 2914.75 3143.18C2916.74 3139.21 2921.6 3136.17 2925.12 3132.7C2927.86 3135.42 2928.15 3136.49 2928.27 3137.58C2929.4 3147.2 2935.34 3154.05 2946.46 3157.31C2957.18 3160.48 2966.85 3158.06 2975.32 3152.15C2988.09 3143.22 2989.85 3125.11 2979.3 3111.8C2963.35 3091.64 2923.2 3086.39 2897.04 3101.04C2868.31 3117.12 2855.36 3147.48 2865.83 3176.87C2874.77 3201.93 2895.03 3219.53 2925.52 3226.7C2976.26 3238.63 3020.31 3233.28 3055.6 3198.01C3070.25 3183.36 3080.74 3165.9 3092.92 3149.63C3107.63 3129.97 3120.02 3108.86 3137.2 3090.79C3143.89 3083.75 3151.61 3077.65 3160.09 3072.51C3160.07 3072.45 3160.07 3072.38 3160.06 3072.32C3187.78 3055.43 3221.31 3049.19 3260.19 3055.22C3311.64 3063.19 3341.75 3099.39 3332.19 3140.62C3324.6 3173.4 3286.02 3194 3249.26 3184.89C3226.23 3179.17 3214.26 3160.2 3223.49 3142.92C3225.55 3139.03 3230.5 3136.17 3235.86 3131.26C3238.55 3151.05 3250.05 3159.88 3267.6 3158.62C3283.55 3157.46 3296.99 3143.84 3294.58 3129.43C3293.4 3122.43 3290.23 3114.96 3285.32 3109.22C3269.72 3090.97 3230.79 3087.81 3205.55 3101.15C3168.83 3120.56 3165.22 3162.27 3178.88 3186.75C3192.95 3211.97 3218.06 3226.07 3251.46 3230.38C3289.43 3235.28 3324.18 3230.88 3353.28 3208.08C3372.25 3193.22 3386.5 3175.93 3397.95 3156.69C3407.58 3140.49 3417.38 3124.21 3429.18 3109.04C3439.64 3095.58 3451.6 3084.21 3465.15 3075.25C3465.15 3075.25 3477.27 3067.47 3491.66 3062.18C3492.9 3061.72 3494.12 3061.33 3495.36 3060.89C3497.21 3060.29 3499.07 3059.71 3500.94 3059.23C3502.13 3058.94 3503.15 3058.53 3504.03 3058.03C3532.05 3049.96 3560.51 3050.63 3589.05 3060.12C3635.56 3075.55 3656.17 3116.05 3636.87 3152.87C3622.09 3181.05 3584.84 3194.57 3553.65 3183.09C3534.19 3175.91 3525.3 3159.03 3533.39 3142.97C3535.41 3138.97 3540.36 3135.94 3545.45 3131.04C3548.99 3149.62 3556.74 3157.23 3570.68 3158.35C3584.89 3159.52 3598.48 3152.63 3602.73 3141.28C3606.9 3130.13 3604.59 3119.51 3596.25 3109.92C3579.12 3090.24 3538.35 3086.81 3512.38 3102.85C3477.36 3124.47 3471.24 3168.91 3497.38 3199.51C3530.11 3237.84 3611.66 3239.97 3648.13 3217.73C3673.04 3202.53 3691.95 3183.54 3705.14 3160.67C3719.13 3136.42 3733.13 3112.19 3754.52 3091.49C3791.31 3055.87 3848.14 3043.36 3898.39 3059.79C3942.65 3074.28 3964.17 3111.01 3949.7 3147.4C3939.61 3172.76 3911.89 3188.83 3881.72 3186.82C3851.59 3184.81 3833.99 3165.36 3843.28 3143.64C3845.08 3139.44 3849.96 3136.14 3854.8 3130.94C3859.66 3150.01 3867.45 3157.45 3881.3 3158.37C3903.52 3159.84 3919.69 3142.49 3913.93 3123.37C3906.67 3099.22 3871.26 3085.95 3839.5 3095.46C3798.92 3107.62 3779.46 3150.63 3798.16 3185.86C3823.71 3234.03 3900.63 3241.23 3945.14 3223.63C3978.92 3210.28 3999.74 3186.45 4016.11 3159.61C4026.11 3143.24 4035.78 3126.62 4047.5 3111.06C4076.79 3072.17 4118.02 3049.34 4176 3053.28C4229.43 3056.92 4272.81 3089.38 4262.49 3139.55C4257.74 3162.63 4233.94 3183 4207.05 3186.49C4181.6 3189.78 4158.49 3179.94 4152.34 3163.17C4147.48 3149.87 4153.75 3136.67 4166.4 3133.94C4166.63 3134.74 4166.93 3135.53 4167.05 3136.34C4169.06 3149.79 4178.69 3158.01 4193 3158.5C4208.21 3159.02 4221.41 3150.03 4224.26 3137.24C4227.7 3121.76 4217.79 3105.48 4200.56 3098.35C4175.99 3088.17 4145.67 3091.96 4125.7 3107.7C4097.12 3130.22 4094.34 3171.25 4117.32 3198.85C4149.53 3237.54 4230.23 3239.61 4266.07 3219.04C4293.09 3203.55 4312.17 3183.04 4326.67 3159.09C4337.04 3141.93 4347.41 3124.64 4359.84 3108.47C4389.29 3070.15 4431.09 3048.88 4487.88 3053.42C4541.12 3057.67 4581.67 3089.11 4573.01 3138.43C4568.75 3162.64 4544.06 3183.32 4515.55 3186.69C4493.16 3189.32 4471.58 3180.88 4464.11 3166.59C4457.17 3153.3 4462.18 3138.51 4476.32 3133.32C4476.86 3135.12 4477.23 3136.14 4477.43 3137.21C4479.87 3150.73 4489.47 3158.31 4504.25 3158.43C4519.03 3158.54 4532.09 3149.43 4534.62 3137.23C4537.87 3121.64 4528.33 3104.98 4510.81 3098.35C4488.36 3089.84 4466.13 3090.61 4444.79 3101.81C4407.15 3121.58 4404.95 3169.37 4424.4 3195.11C4454.67 3235.23 4526.85 3239.24 4565.03 3224.02C4597.03 3211.26 4617.56 3188.98 4633.93 3163.88C4646.75 3144.26 4658.11 3123.85 4672.82 3105.21C4705.16 3064.18 4757.28 3045.8 4810.11 3054.88C4868.72 3064.95 4900.14 3110.37 4877.85 3152.82C4863.95 3179.28 4830.2 3192.97 4799.32 3184.66C4777.64 3178.83 4766.51 3162.13 4773.51 3144.44C4775.27 3139.99 4780.41 3136.44 4784 3132.5C4786.87 3135.17 4787.07 3136.53 4787.34 3137.87C4790.02 3150.27 4798.78 3157.55 4812 3158.41C4826.24 3159.33 4839.43 3152.05 4843.76 3140.9C4849.64 3125.78 4840.45 3107.05 4823.33 3099.3C4799.72 3088.6 4769.25 3091.23 4748.89 3105.71C4718.38 3127.37 4713.41 3169.81 4736.71 3197.71C4765.73 3232.45 4824.95 3238.77 4866.32 3226.88C4904.27 3215.97 4926.66 3190.67 4944.92 3162.63C4959.03 3141.02 4971.61 3118.39 4988.96 3098.65C5021.09 3062.14 5065.8 3046.48 5120.97 3055.04C5172.41 3063.02 5202.51 3099.21 5192.94 3140.44C5185.36 3173.22 5146.77 3193.82 5110.01 3184.71C5087.01 3179 5075.04 3160.03 5084.24 3142.73C5086.3 3138.85 5091.27 3135.99 5096.61 3131.08C5099.32 3150.88 5110.82 3159.7 5128.37 3158.44C5144.3 3157.29 5157.73 3143.65 5155.33 3129.24C5154.18 3122.26 5151 3114.78 5146.06 3109.04C5130.5 3090.8 5091.54 3087.63 5066.31 3100.97C5029.58 3120.38 5025.99 3162.08 5039.62 3186.56C5053.73 3211.78 5078.82 3225.89 5112.24 3230.19C5150.19 3235.09 5184.96 3230.7 5214.05 3207.91C5233.02 3193.03 5247.26 3175.75 5258.69 3156.52C5268.33 3140.32 5278.14 3124.03 5289.94 3108.85C5319.77 3070.48 5361.61 3048.54 5418.91 3053.48C5475.83 3058.39 5512.53 3092.23 5503.43 3138.78C5496.93 3171.87 5459.19 3193.22 5422.05 3185.2C5398.44 3180.1 5385.63 3161.03 5394.49 3143.18C5396.45 3139.21 5401.32 3136.17 5404.87 3132.7C5407.61 3135.42 5407.88 3136.49 5407.98 3137.58C5409.13 3147.2 5415.08 3154.05 5426.18 3157.31C5436.9 3160.48 5446.57 3158.06 5455.06 3152.15C5467.81 3143.22 5469.57 3125.11 5459.05 3111.8C5443.09 3091.64 5402.94 3086.39 5376.76 3101.04C5348.02 3117.12 5335.1 3147.48 5345.58 3176.87C5354.51 3201.93 5374.73 3219.53 5405.24 3226.7C5456.01 3238.63 5500.05 3233.28 5535.32 3198.01C5549.97 3183.36 5560.45 3165.9 5572.66 3149.63C5587.37 3129.97 5599.75 3108.86 5616.94 3090.79C5623.63 3083.75 5631.34 3077.65 5639.8 3072.51C5639.8 3072.45 5639.8 3072.38 5639.8 3072.32C5667.5 3055.43 5701.05 3049.19 5739.95 3055.22C5791.36 3063.19 5821.49 3099.39 5811.92 3140.62C5804.34 3173.4 5765.75 3194 5728.99 3184.89C5705.96 3179.17 5693.98 3160.2 5703.22 3142.92C5705.28 3139.03 5710.22 3136.17 5715.59 3131.26C5718.27 3151.05 5729.77 3159.88 5747.35 3158.62C5763.28 3157.46 5776.71 3143.84 5774.31 3129.43C5773.13 3122.43 5769.95 3114.96 5765.04 3109.22C5749.45 3090.97 5710.52 3087.81 5685.29 3101.15C5648.56 3120.56 5644.94 3162.27 5658.6 3186.75C5672.67 3211.97 5697.8 3226.07 5731.19 3230.38C5769.17 3235.28 5803.9 3230.88 5832.99 3208.08C5851.97 3193.22 5866.24 3175.93 5877.67 3156.69C5887.31 3140.49 5897.12 3124.21 5908.92 3109.04C5919.37 3095.58 5931.31 3084.21 5944.88 3075.25C5944.88 3075.25 5951.34 3071.08 5960.43 3066.76C5960.43 3062.69 5960.43 3030.11 5960.43 3026.04C5960.37 3026.04 5960.37 3026.04 5960.33 3026.04" id="awm7bd7q"></path><path d="M739.36 25C738.67 25.27 738.26 25.42 737.85 25.58C732.99 27.51 728.04 27.64 723.06 25.99C716.13 23.69 713.06 17.65 715.94 12.16C718.14 7.96 723.69 5.95 728.34 7.66C731.24 8.73 732.56 11.24 731.36 13.64C731.06 14.23 730.32 14.68 729.56 15.41C729.04 12.65 727.88 11.51 725.8 11.34C723.68 11.17 721.66 12.2 721.02 13.89C720.4 15.55 720.75 17.13 721.99 18.56C724.54 21.5 730.62 22.01 734.49 19.62C739.71 16.39 740.63 9.77 736.73 5.21C731.85 -0.5 719.69 -0.82 714.25 2.49C710.54 4.76 707.73 7.59 705.76 11C703.67 14.61 701.59 18.22 698.4 21.31C692.91 26.62 684.45 28.48 676.95 26.04C670.36 23.88 667.15 18.4 669.31 12.98C670.81 9.2 674.94 6.8 679.44 7.1C683.93 7.4 686.55 10.3 685.17 13.54C684.9 14.16 684.17 14.66 683.45 15.43C682.73 12.59 681.57 11.48 679.51 11.34C676.19 11.12 673.78 13.71 674.64 16.56C675.72 20.16 681 22.14 685.73 20.72C691.78 18.91 694.68 12.5 691.9 7.24C688.09 0.07 676.62 -1.01 669.99 1.61C664.96 3.6 661.85 7.16 659.41 11.16C657.92 13.6 656.48 16.07 654.73 18.39C650.37 24.19 644.22 27.59 635.58 27.01C627.61 26.47 621.15 21.63 622.69 14.15C623.4 10.71 626.94 7.67 630.95 7.15C634.74 6.66 638.19 8.13 639.1 10.63C639.83 12.61 638.89 14.58 637.01 14.98C636.98 14.86 636.93 14.75 636.91 14.63C636.61 12.62 635.18 11.39 633.05 11.32C630.78 11.25 628.81 12.59 628.38 14.49C627.87 16.8 629.35 19.22 631.92 20.29C635.58 21.8 640.1 21.24 643.07 18.89C647.33 15.54 647.75 9.42 644.32 5.31C639.52 -0.46 627.49 -0.77 622.15 2.3C618.12 4.61 615.28 7.67 613.12 11.23C611.57 13.79 610.03 16.37 608.18 18.78C603.79 24.49 597.56 27.66 589.09 26.99C581.16 26.35 575.11 21.66 576.4 14.31C577.04 10.71 580.72 7.62 584.97 7.12C588.31 6.73 591.53 7.99 592.63 10.12C593.67 12.1 592.92 14.3 590.81 15.08C590.74 14.81 590.68 14.66 590.65 14.5C590.29 12.48 588.86 11.35 586.65 11.33C584.45 11.32 582.5 12.67 582.12 14.49C581.64 16.82 583.06 19.3 585.67 20.29C589.02 21.56 592.33 21.44 595.51 19.77C601.13 16.83 601.45 9.7 598.55 5.87C594.04 -0.11 583.28 -0.71 577.59 1.56C572.82 3.46 569.76 6.78 567.32 10.52C565.41 13.45 563.72 16.49 561.53 19.27C556.71 25.38 548.94 28.12 541.06 26.77C532.33 25.27 527.65 18.5 530.96 12.17C533.03 8.22 538.07 6.18 542.67 7.42C545.9 8.29 547.56 10.78 546.52 13.42C546.25 14.08 545.49 14.61 544.95 15.2C544.53 14.8 544.5 14.6 544.46 14.4C544.06 12.55 542.76 11.46 540.78 11.34C538.66 11.2 536.69 12.28 536.05 13.95C535.17 16.2 536.54 18.99 539.09 20.15C542.61 21.74 547.15 21.35 550.19 19.19C554.73 15.96 555.48 9.64 552 5.48C547.68 0.3 538.85 -0.64 532.68 1.13C527.03 2.76 523.69 6.53 520.97 10.71C518.87 13.93 516.99 17.3 514.4 20.24C509.62 25.68 502.95 28.02 494.73 26.74C487.06 25.55 482.58 20.16 484 14.01C485.13 9.13 490.88 6.06 496.36 7.42C499.79 8.27 501.58 11.1 500.2 13.67C499.89 14.25 499.16 14.68 498.36 15.41C497.96 12.46 496.24 11.14 493.63 11.33C491.25 11.5 489.25 13.54 489.61 15.68C489.78 16.72 490.25 17.84 490.99 18.7C493.31 21.41 499.12 21.89 502.88 19.9C508.35 17 508.88 10.79 506.85 7.14C504.76 3.38 501.01 1.28 496.03 0.64C490.37 -0.09 485.19 0.56 480.86 3.96C478.03 6.18 475.9 8.75 474.2 11.62C472.76 14.03 471.3 16.46 469.54 18.72C465.1 24.44 458.86 27.71 450.32 26.98C441.84 26.24 436.37 21.2 437.73 14.26C438.69 9.33 444.32 6.15 449.85 7.34C453.37 8.1 455.28 10.95 453.96 13.61C453.67 14.2 452.94 14.65 452.41 15.17C452.01 14.76 451.96 14.6 451.95 14.44C451.78 13.01 450.89 11.99 449.24 11.5C447.64 11.03 446.2 11.39 444.93 12.27C443.03 13.6 442.77 16.3 444.34 18.28C446.72 21.29 452.7 22.07 456.6 19.89C460.88 17.49 462.81 12.97 461.25 8.58C459.92 4.85 456.9 2.23 452.36 1.16C444.79 -0.62 438.23 0.18 432.97 5.43C430.78 7.62 429.22 10.22 427.4 12.65C425.21 15.58 423.37 18.72 420.8 21.41C419.81 22.46 418.66 23.37 417.39 24.14C417.4 24.15 417.4 24.16 417.4 24.17C413.27 26.69 408.27 27.61 402.47 26.72C394.81 25.53 390.32 20.13 391.74 13.99C392.87 9.1 398.62 6.03 404.1 7.39C407.54 8.24 409.32 11.07 407.94 13.65C407.64 14.22 406.9 14.65 406.1 15.38C405.7 12.43 403.99 11.12 401.37 11.31C398.99 11.48 396.99 13.51 397.35 15.66C397.52 16.7 398 17.81 398.73 18.67C401.05 21.39 406.86 21.86 410.62 19.87C416.09 16.98 416.63 10.76 414.59 7.11C412.49 3.35 408.75 1.25 403.77 0.61C398.12 -0.12 392.93 0.53 388.6 3.93C385.77 6.15 383.65 8.73 381.94 11.59C380.5 14.01 379.04 16.43 377.29 18.7C375.73 20.7 373.94 22.39 371.92 23.73C371.92 23.73 370.12 24.89 367.97 25.68C367.79 25.75 367.61 25.81 367.42 25.87C367.15 25.96 366.87 26.05 366.59 26.12C366.41 26.16 366.26 26.22 366.13 26.3C361.95 27.5 357.71 27.4 353.46 25.99C346.52 23.69 343.45 17.65 346.33 12.16C348.53 7.96 354.08 5.95 358.73 7.66C361.63 8.73 362.96 11.24 361.75 13.64C361.45 14.23 360.71 14.68 359.95 15.41C359.43 12.65 358.27 11.51 356.19 11.34C354.08 11.17 352.05 12.2 351.42 13.89C350.8 15.55 351.14 17.13 352.38 18.56C354.94 21.5 361.01 22.01 364.88 19.62C370.1 16.39 371.02 9.77 367.12 5.21C362.24 -0.5 350.09 -0.82 344.65 2.49C340.94 4.76 338.12 7.59 336.15 11C334.07 14.61 331.98 18.22 328.79 21.31C323.31 26.62 314.84 28.48 307.35 26.04C300.75 23.88 297.54 18.4 299.7 12.98C301.2 9.2 305.34 6.8 309.83 7.1C314.32 7.4 316.95 10.3 315.56 13.54C315.3 14.16 314.57 14.66 313.85 15.43C313.12 12.59 311.96 11.48 309.9 11.34C306.58 11.12 304.17 13.71 305.03 16.56C306.11 20.16 311.39 22.14 316.13 20.72C322.17 18.91 325.08 12.5 322.29 7.24C318.48 0.07 307.01 -1.01 300.38 1.61C295.35 3.6 292.24 7.16 289.8 11.16C288.31 13.6 286.87 16.07 285.12 18.39C280.76 24.19 274.61 27.59 265.97 27.01C258.01 26.47 251.54 21.63 253.08 14.15C253.79 10.71 257.33 7.67 261.34 7.15C265.14 6.66 268.58 8.13 269.5 10.63C270.22 12.61 269.29 14.58 267.4 14.98C267.37 14.86 267.32 14.75 267.3 14.63C267 12.62 265.57 11.39 263.44 11.32C261.17 11.25 259.2 12.59 258.78 14.49C258.26 16.8 259.74 19.22 262.31 20.29C265.97 21.8 270.49 21.24 273.47 18.89C277.73 15.54 278.14 9.42 274.72 5.31C269.92 -0.46 257.89 -0.77 252.55 2.3C248.52 4.61 245.67 7.67 243.51 11.23C241.97 13.79 240.42 16.37 238.57 18.78C234.18 24.49 227.95 27.66 219.48 26.99C211.55 26.35 205.5 21.66 206.8 14.31C207.43 10.71 211.11 7.62 215.36 7.12C218.7 6.73 221.92 7.99 223.03 10.12C224.06 12.1 223.31 14.3 221.21 15.08C221.13 14.81 221.07 14.66 221.04 14.5C220.68 12.48 219.25 11.35 217.04 11.33C214.84 11.32 212.9 12.67 212.52 14.49C212.03 16.82 213.45 19.3 216.06 20.29C219.41 21.56 222.72 21.44 225.9 19.77C231.52 16.83 231.84 9.7 228.95 5.87C224.43 -0.11 213.68 -0.71 207.98 1.56C203.21 3.46 200.16 6.78 197.71 10.52C195.8 13.45 194.11 16.49 191.92 19.27C187.1 25.38 179.33 28.12 171.46 26.77C162.72 25.27 158.04 18.5 161.36 12.17C163.43 8.22 168.46 6.18 173.07 7.42C176.3 8.29 177.96 10.78 176.91 13.42C176.65 14.08 175.88 14.61 175.35 15.2C174.92 14.8 174.89 14.6 174.85 14.4C174.45 12.55 173.15 11.46 171.17 11.34C169.05 11.2 167.09 12.28 166.44 13.95C165.56 16.2 166.93 18.99 169.48 20.15C173 21.74 177.54 21.35 180.58 19.19C185.13 15.96 185.87 9.64 182.4 5.48C178.07 0.3 169.24 -0.64 163.08 1.13C157.42 2.76 154.08 6.53 151.36 10.71C149.26 13.93 147.38 17.3 144.8 20.24C140.01 25.68 133.35 28.02 125.12 26.74C117.46 25.55 112.97 20.16 114.39 14.01C115.52 9.13 121.28 6.06 126.75 7.42C130.19 8.27 131.97 11.1 130.6 13.67C130.29 14.25 129.55 14.68 128.75 15.41C128.35 12.46 126.64 11.14 124.02 11.33C121.64 11.5 119.64 13.54 120 15.68C120.17 16.72 120.65 17.84 121.38 18.7C123.7 21.41 129.51 21.89 133.27 19.9C138.74 17 139.28 10.79 137.24 7.14C135.15 3.38 131.4 1.28 126.42 0.64C120.77 -0.09 115.59 0.56 111.25 3.96C108.42 6.18 106.3 8.75 104.59 11.62C103.15 14.03 101.69 16.46 99.94 18.72C95.49 24.44 89.25 27.71 80.71 26.98C72.23 26.24 66.76 21.2 68.12 14.26C69.08 9.33 74.71 6.15 80.24 7.34C83.76 8.1 85.68 10.95 84.35 13.61C84.06 14.2 83.33 14.65 82.81 15.17C82.4 14.76 82.36 14.6 82.34 14.44C82.17 13.01 81.28 11.99 79.63 11.5C78.03 11.03 76.59 11.39 75.33 12.27C73.42 13.6 73.16 16.3 74.73 18.28C77.11 21.29 83.09 22.07 86.99 19.89C91.28 17.49 93.21 12.97 91.64 8.58C90.31 4.85 87.29 2.23 82.75 1.16C75.19 -0.62 68.62 0.18 63.36 5.43C61.18 7.62 59.61 10.22 57.8 12.65C55.6 15.58 53.76 18.72 51.2 21.41C50.2 22.46 49.05 23.37 47.79 24.14C47.79 24.15 47.79 24.16 47.79 24.17C43.66 26.69 38.66 27.61 32.87 26.72C25.2 25.53 20.71 20.13 22.13 13.99C23.27 9.1 29.02 6.03 34.49 7.39C37.93 8.24 39.71 11.07 38.34 13.65C38.03 14.22 37.29 14.65 36.49 15.38C36.09 12.43 34.38 11.12 31.76 11.31C29.38 11.48 27.38 13.51 27.74 15.66C27.91 16.7 28.39 17.81 29.12 18.67C31.44 21.39 37.25 21.86 41.01 19.87C46.48 16.98 47.02 10.76 44.98 7.11C42.89 3.35 39.14 1.25 34.17 0.61C28.51 -0.12 23.33 0.53 18.99 3.93C16.16 6.15 14.04 8.73 12.33 11.59C10.9 14.01 9.44 16.43 7.68 18.7C6.12 20.7 4.34 22.39 2.32 23.73C2.32 23.73 1.36 24.35 0 25C0 26.68 0.02 35.12 0.04 50.3C443.61 50.3 690.03 50.3 739.31 50.3C739.31 50.3 739.36 25.67 739.36 25" id="a1xLicMUY9"></path><path d="M4960.54 4675.54C4960.54 4534.38 4960.54 4455.96 4960.54 4440.27C4930.57 4492.04 4869.55 4492.04 4839.62 4440.27C4804.24 4379.13 4734.84 4379.13 4699.46 4440.27C4669.53 4492.04 4608.51 4492.04 4578.58 4440.27C4543.2 4379.13 4473.8 4379.13 4438.42 4440.27C4408.49 4492.04 4347.47 4492.04 4317.54 4440.27C4282.16 4379.13 4212.76 4379.13 4177.38 4440.27C4147.45 4492.04 4086.43 4492.04 4056.5 4440.27C4021.12 4379.13 3951.72 4379.13 3916.34 4440.27C3886.41 4492.05 3825.39 4492.04 3795.43 4440.27C3760.08 4379.13 3690.65 4379.13 3655.3 4440.27C3625.37 4492.04 3564.35 4492.04 3534.42 4440.27C3499.04 4379.13 3429.61 4379.13 3394.26 4440.27C3364.31 4492.04 3303.3 4492.04 3273.36 4440.27C3237.99 4379.13 3168.58 4379.13 3133.21 4440.27C3103.26 4492.04 3042.25 4492.04 3012.31 4440.27C2976.94 4379.13 2907.53 4379.13 2872.16 4440.27C2842.23 4492.04 2781.21 4492.04 2751.27 4440.27C2715.9 4379.13 2646.48 4379.13 2611.12 4440.27C2581.18 4492.04 2520.16 4492.04 2490.22 4440.27C2454.86 4379.13 2385.44 4379.13 2350.07 4440.27C2320.14 4492.04 2259.12 4492.04 2229.17 4440.27C2193.82 4379.13 2124.39 4379.13 2089.04 4440.27C2059.09 4492.04 1998.07 4492.04 1968.13 4440.27C1950.46 4409.7 1924.25 4394.41 1898.07 4394.41C1871.85 4394.41 1845.67 4409.7 1827.99 4440.27C1798.04 4492.04 1737.03 4492.04 1707.1 4440.27C1671.72 4379.13 1602.31 4379.13 1566.94 4440.27C1537 4492.04 1475.98 4492.04 1446.05 4440.27C1410.68 4379.13 1341.26 4379.13 1305.89 4440.27C1275.96 4492.04 1214.94 4492.04 1185 4440.27C1167.32 4409.7 1141.12 4394.41 1114.93 4394.41C1088.73 4394.41 1062.54 4409.7 1044.85 4440.27C1014.91 4492.04 953.9 4492.04 923.96 4440.27C888.59 4379.13 819.17 4379.13 783.81 4440.27C753.87 4492.04 692.85 4492.04 662.91 4440.27C627.55 4379.13 558.13 4379.13 522.77 4440.27C492.83 4492.04 431.81 4492.04 401.87 4440.27C366.5 4379.13 297.09 4379.13 261.72 4440.27C231.78 4492.04 170.77 4492.04 140.83 4440.27C105.46 4379.13 36.04 4379.13 0.67 4440.27C0.67 4440.27 0.67 4440.28 0.67 4440.28C0.67 4455.96 0.67 4534.39 0.67 4675.54L4960.54 4675.54" id="a3Fn3SdbDB"></path><path d="M5960.43 877.52C5930.47 929.27 5869.49 929.27 5839.52 877.52C5804.18 816.37 5734.74 816.37 5699.39 877.52C5669.43 929.27 5608.41 929.27 5578.48 877.52C5543.14 816.37 5473.7 816.37 5438.35 877.52C5408.39 929.27 5347.37 929.27 5317.44 877.52C5282.06 816.37 5212.66 816.37 5177.28 877.52C5147.35 929.27 5086.33 929.27 5056.4 877.52C5021.02 816.37 4951.62 816.37 4916.24 877.52C4886.31 929.27 4825.29 929.27 4795.36 877.52C4759.98 816.37 4690.58 816.37 4655.2 877.52C4625.27 929.27 4564.25 929.27 4534.32 877.52C4498.94 816.37 4429.54 816.37 4394.16 877.52C4364.22 929.27 4303.21 929.27 4273.26 877.52C4237.9 816.37 4168.48 816.37 4133.12 877.52C4103.17 929.27 4042.16 929.27 4012.21 877.52C3976.86 816.37 3907.43 816.37 3872.07 877.52C3842.13 929.27 3781.11 929.27 3751.18 877.52C3715.81 816.37 3646.38 816.37 3611.03 877.52C3581.08 929.27 3520.07 929.27 3490.13 877.52C3454.76 816.37 3385.35 816.37 3349.98 877.52C3320.03 929.27 3259.02 929.27 3229.09 877.52C3193.72 816.37 3124.3 816.37 3088.93 877.52C3059 929.27 2997.99 929.27 2968.04 877.52C2950.35 846.94 2924.16 831.65 2897.96 831.65C2871.77 831.65 2845.57 846.94 2827.89 877.52C2797.96 929.27 2736.94 929.27 2706.99 877.52C2671.64 816.37 2602.21 816.37 2566.84 877.52C2536.91 929.27 2475.89 929.27 2445.95 877.52C2410.59 816.37 2341.17 816.37 2305.81 877.52C2275.86 929.27 2214.85 929.27 2184.9 877.52C2167.23 846.94 2141.02 831.65 2114.83 831.65C2088.63 831.65 2062.44 846.94 2044.76 877.52C2014.82 929.27 1953.8 929.27 1923.86 877.52C1888.5 816.37 1819.08 816.37 1783.71 877.52C1753.77 929.27 1692.76 929.27 1662.82 877.52C1627.45 816.37 1558.04 816.37 1522.67 877.52C1492.73 929.27 1431.71 929.27 1401.77 877.52C1366.41 816.37 1296.99 816.37 1261.63 877.52C1231.68 929.27 1170.67 929.27 1140.73 877.52C1105.37 816.37 1035.95 816.37 1000.58 877.52C1000.58 877.52 1000.57 877.52 1000.57 877.52C1000.57 880.49 1000.57 904.3 1000.57 907.28C1000.57 907.28 1000.58 907.28 1000.58 907.28C1035.95 846.13 1105.37 846.13 1140.73 907.28C1170.67 959.03 1231.68 959.03 1261.63 907.28C1296.99 846.13 1366.41 846.13 1401.77 907.28C1431.71 959.03 1492.73 959.03 1522.67 907.28C1558.04 846.13 1627.45 846.13 1662.82 907.28C1692.76 959.03 1753.77 959.03 1783.71 907.28C1819.08 846.13 1888.5 846.13 1923.86 907.28C1953.8 959.03 2014.82 959.03 2044.76 907.28C2062.44 876.67 2088.63 861.42 2114.83 861.42C2141.02 861.42 2167.23 876.71 2184.9 907.28C2214.85 959.03 2275.86 959.03 2305.81 907.28C2341.17 846.13 2410.59 846.13 2445.95 907.28C2475.89 959.03 2536.91 959.03 2566.84 907.28C2602.21 846.13 2671.64 846.13 2706.99 907.28C2736.94 959.03 2797.96 959.03 2827.89 907.28C2845.57 876.67 2871.77 861.42 2897.96 861.42C2924.16 861.42 2950.35 876.71 2968.04 907.28C2997.99 959.03 3059 959.03 3088.93 907.28C3124.3 846.13 3193.72 846.13 3229.09 907.28C3259.02 959.03 3320.03 959.03 3349.98 907.28C3385.35 846.13 3454.76 846.13 3490.13 907.28C3520.07 959.03 3581.08 959.03 3611.03 907.28C3646.38 846.13 3715.81 846.13 3751.18 907.28C3781.11 959.03 3842.13 959.03 3872.07 907.28C3907.43 846.13 3976.86 846.13 4012.21 907.28C4042.16 959.03 4103.17 959.03 4133.12 907.28C4168.48 846.13 4237.9 846.13 4273.26 907.28C4303.21 959.03 4364.22 959.03 4394.16 907.28C4429.54 846.13 4498.94 846.13 4534.32 907.28C4564.25 959.03 4625.27 959.03 4655.2 907.28C4690.58 846.13 4759.98 846.13 4795.36 907.28C4825.29 959.03 4886.31 959.03 4916.24 907.28C4951.62 846.13 5021.02 846.13 5056.4 907.28C5086.33 959.03 5147.35 959.03 5177.28 907.28C5212.66 846.13 5282.06 846.13 5317.44 907.28C5347.37 959.03 5408.39 959.03 5438.35 907.28C5473.7 846.13 5543.14 846.13 5578.48 907.28C5608.41 959.03 5669.43 959.03 5699.39 907.28C5734.74 846.13 5804.18 846.13 5839.52 907.28C5869.49 959.03 5930.47 959.03 5960.43 907.28C5960.43 905.3 5960.43 895.38 5960.43 877.52L5960.43 877.52" id="c1rS0ALjce"></path><path d="M5829.91 925.14C5799.95 873.36 5738.93 873.36 5709 925.14C5673.66 986.29 5604.22 986.29 5568.84 925.14C5538.91 873.39 5477.89 873.36 5447.96 925.14C5412.58 986.29 5343.18 986.29 5307.8 925.14C5277.87 873.36 5216.85 873.36 5186.92 925.14C5151.54 986.29 5082.14 986.29 5046.76 925.14C5016.83 873.39 4955.81 873.36 4925.88 925.14C4890.5 986.29 4821.1 986.29 4785.72 925.14C4755.79 873.36 4694.77 873.36 4664.84 925.14C4629.46 986.29 4560.03 986.29 4524.68 925.14C4494.75 873.36 4433.73 873.36 4403.77 925.14C4368.42 986.29 4299.01 986.29 4263.64 925.14C4233.69 873.36 4172.68 873.36 4142.74 925.14C4107.38 986.29 4037.95 986.29 4002.59 925.14C3972.64 873.36 3911.63 873.39 3881.7 925.14C3846.33 986.29 3776.91 986.29 3741.54 925.14C3711.61 873.36 3650.58 873.39 3620.65 925.14C3585.29 986.29 3515.87 986.29 3480.5 925.14C3450.57 873.39 3389.55 873.39 3359.6 925.14C3324.24 986.29 3254.82 986.29 3219.45 925.14C3189.52 873.39 3128.5 873.36 3098.56 925.14C3063.2 986.29 2993.77 986.29 2958.4 925.14C2928.47 873.36 2867.46 873.36 2837.51 925.14C2802.15 986.29 2732.74 986.29 2697.37 925.14C2667.43 873.39 2606.41 873.39 2576.46 925.14C2541.11 986.29 2471.69 986.29 2436.32 925.14C2406.38 873.36 2345.38 873.36 2315.43 925.14C2280.07 986.29 2210.65 986.29 2175.28 925.14C2145.34 873.36 2084.32 873.36 2054.38 925.14C2019.02 986.29 1949.6 986.29 1914.24 925.14C1884.3 873.36 1823.28 873.36 1793.34 925.14C1757.97 986.29 1688.56 986.29 1653.19 925.14C1623.25 873.36 1562.24 873.36 1532.3 925.14C1496.93 986.29 1427.51 986.29 1392.14 925.14C1362.2 873.36 1301.19 873.36 1271.25 925.14C1235.89 986.29 1166.47 986.29 1131.11 925.14C1101.16 873.36 1040.15 873.36 1010.2 925.14C1007.23 930.28 1003.99 934.95 1000.57 939.24C1000.57 941.27 1000.57 957.45 1000.57 959.47C1000.57 959.47 1000.58 959.47 1000.58 959.47C1035.95 898.32 1105.37 898.32 1140.73 959.47C1170.67 1011.25 1231.68 1011.25 1261.63 959.47C1296.99 898.32 1366.41 898.32 1401.77 959.47C1431.71 1011.25 1492.73 1011.25 1522.67 959.47C1558.04 898.32 1627.45 898.32 1662.82 959.47C1692.76 1011.25 1753.77 1011.25 1783.71 959.47C1819.08 898.32 1888.5 898.32 1923.86 959.47C1953.8 1011.25 2014.82 1011.25 2044.76 959.47C2062.44 928.89 2088.63 913.61 2114.83 913.61C2141.02 913.61 2167.23 928.89 2184.9 959.47C2214.85 1011.25 2275.86 1011.25 2305.81 959.47C2341.17 898.32 2410.59 898.32 2445.95 959.47C2475.89 1011.25 2536.91 1011.25 2566.84 959.47C2602.21 898.32 2671.64 898.32 2706.99 959.47C2736.94 1011.25 2797.96 1011.25 2827.89 959.47C2845.57 928.89 2871.77 913.61 2897.96 913.61C2924.16 913.61 2950.35 928.89 2968.04 959.47C2997.99 1011.25 3059 1011.25 3088.93 959.47C3124.3 898.32 3193.72 898.32 3229.09 959.47C3259.02 1011.25 3320.03 1011.25 3349.98 959.47C3385.35 898.32 3454.76 898.32 3490.13 959.47C3520.07 1011.25 3581.08 1011.25 3611.03 959.47C3646.38 898.32 3715.81 898.32 3751.18 959.47C3781.11 1011.25 3842.13 1011.25 3872.07 959.47C3907.43 898.32 3976.86 898.32 4012.21 959.47C4042.16 1011.25 4103.17 1011.22 4133.12 959.47C4168.48 898.32 4237.9 898.32 4273.26 959.47C4303.21 1011.25 4364.22 1011.25 4394.16 959.47C4429.54 898.32 4498.94 898.32 4534.32 959.47C4564.25 1011.25 4625.27 1011.25 4655.2 959.47C4690.58 898.32 4759.98 898.32 4795.36 959.47C4825.29 1011.25 4886.31 1011.25 4916.24 959.47C4951.62 898.32 5021.02 898.32 5056.4 959.47C5086.33 1011.25 5147.35 1011.25 5177.28 959.47C5212.66 898.32 5282.06 898.32 5317.44 959.47C5347.37 1011.25 5408.39 1011.25 5438.35 959.47C5473.7 898.32 5543.14 898.32 5578.48 959.47C5608.41 1011.25 5669.43 1011.25 5699.39 959.47C5734.74 898.32 5804.18 898.32 5839.52 959.47C5869.49 1011.25 5930.47 1011.25 5960.43 959.47C5960.43 957.45 5960.43 941.27 5960.43 939.24C5923.23 985.82 5862.28 981.15 5829.91 925.14" id="b50vSxAbB"></path><path d="M5829.91 977.36C5799.95 925.58 5738.93 925.58 5709 977.36C5673.66 1038.48 5604.22 1038.48 5568.84 977.36C5538.91 925.58 5477.89 925.58 5447.96 977.36C5412.58 1038.48 5343.18 1038.48 5307.8 977.36C5277.87 925.58 5216.85 925.58 5186.92 977.36C5151.54 1038.48 5082.14 1038.48 5046.76 977.36C5016.83 925.58 4955.81 925.58 4925.88 977.36C4890.5 1038.48 4821.1 1038.48 4785.72 977.36C4755.79 925.58 4694.77 925.58 4664.84 977.36C4629.46 1038.48 4560.03 1038.48 4524.68 977.36C4494.75 925.58 4433.73 925.58 4403.77 977.36C4368.42 1038.48 4299.01 1038.48 4263.64 977.36C4233.69 925.58 4172.68 925.58 4142.74 977.36C4107.38 1038.48 4037.95 1038.48 4002.59 977.36C3972.64 925.58 3911.63 925.58 3881.7 977.36C3846.33 1038.48 3776.91 1038.48 3741.54 977.36C3711.61 925.58 3650.58 925.58 3620.65 977.36C3585.29 1038.48 3515.87 1038.48 3480.5 977.36C3450.57 925.58 3389.55 925.58 3359.6 977.36C3324.24 1038.48 3254.82 1038.48 3219.45 977.36C3189.52 925.58 3128.5 925.58 3098.56 977.36C3063.2 1038.48 2993.77 1038.48 2958.4 977.36C2928.47 925.58 2867.46 925.58 2837.51 977.36C2802.15 1038.48 2732.74 1038.48 2697.37 977.36C2667.43 925.58 2606.41 925.58 2576.46 977.36C2541.11 1038.48 2471.69 1038.48 2436.32 977.36C2406.38 925.58 2345.38 925.58 2315.43 977.36C2280.07 1038.48 2210.65 1038.48 2175.28 977.36C2145.34 925.58 2084.32 925.58 2054.38 977.36C2019.02 1038.48 1949.6 1038.48 1914.24 977.36C1884.3 925.58 1823.28 925.58 1793.34 977.36C1757.97 1038.48 1688.56 1038.48 1653.19 977.36C1623.25 925.58 1562.24 925.58 1532.3 977.36C1496.93 1038.48 1427.51 1038.48 1392.14 977.36C1362.2 925.58 1301.19 925.58 1271.25 977.36C1235.89 1038.48 1166.47 1038.48 1131.11 977.36C1101.16 925.58 1040.15 925.58 1010.2 977.36C1007.23 982.5 1003.99 987.17 1000.57 991.46C1000.57 999.55 1000.57 1039.99 1000.57 1112.78L5960.43 1112.78C5960.43 1039.97 5960.43 999.52 5960.43 991.43C5923.23 1038 5862.28 1033.34 5829.91 977.36" id="b2tko2lMCw"></path></defs><g><g><g><use xlink:href="#a2vVEBNlf0" opacity="1" fill="#ffffff" fill-opacity="1"></use><g><use xlink:href="#a2vVEBNlf0" opacity="1" fill-opacity="0" stroke="#000000" stroke-width="1" stroke-opacity="0"></use></g></g><g><use xlink:href="#a2bzwo6puT" opacity="1" fill="#1eb5d1" fill-opacity="1"></use><g><use xlink:href="#a2bzwo6puT" opacity="1" fill-opacity="0" stroke="#000000" stroke-width="1" stroke-opacity="0"></use></g></g><g><use xlink:href="#aXbtkBbpm" opacity="1" fill="#1eb5d1" fill-opacity="1"></use><g><use xlink:href="#aXbtkBbpm" opacity="1" fill-opacity="0" stroke="#000000" stroke-width="1" stroke-opacity="0"></use></g></g><g><use xlink:href="#ibHhH6tyQ" opacity="1" fill="#1eb5d1" fill-opacity="1"></use><g><use xlink:href="#ibHhH6tyQ" opacity="1" fill-opacity="0" stroke="#000000" stroke-width="1" stroke-opacity="0"></use></g></g><g><use xlink:href="#a1Otrlhp0Y" opacity="1" fill="#1eb5d1" fill-opacity="1"></use><g><use xlink:href="#a1Otrlhp0Y" opacity="1" fill-opacity="0" stroke="#000000" stroke-width="1" stroke-opacity="0"></use></g></g><g><use xlink:href="#awm7bd7q" opacity="1" fill="#1eb5d1" fill-opacity="1"></use><g><use xlink:href="#awm7bd7q" opacity="1" fill-opacity="0" stroke="#000000" stroke-width="1" stroke-opacity="0"></use></g></g><g><use xlink:href="#a1xLicMUY9" opacity="1" fill="#000000" fill-opacity="1"></use><g><use xlink:href="#a1xLicMUY9" opacity="1" fill-opacity="0" stroke="#000000" stroke-width="1" stroke-opacity="0"></use></g></g><g><use xlink:href="#a3Fn3SdbDB" opacity="1" fill="#1eb5d1" fill-opacity="1"></use><g><use xlink:href="#a3Fn3SdbDB" opacity="1" fill-opacity="0" stroke="#000000" stroke-width="1" stroke-opacity="0"></use></g></g><g><use xlink:href="#c1rS0ALjce" opacity="1" fill="#1eb5d1" fill-opacity="1"></use><g><use xlink:href="#c1rS0ALjce" opacity="1" fill-opacity="0" stroke="#000000" stroke-width="1" stroke-opacity="0"></use></g></g><g><use xlink:href="#b50vSxAbB" opacity="1" fill="#1eb5d1" fill-opacity="1"></use><g><use xlink:href="#b50vSxAbB" opacity="1" fill-opacity="0" stroke="#000000" stroke-width="1" stroke-opacity="0"></use></g></g><g><use xlink:href="#b2tko2lMCw" opacity="1" fill="#1eb5d1" fill-opacity="1"></use><g><use xlink:href="#b2tko2lMCw" opacity="1" fill-opacity="0" stroke="#000000" stroke-width="1" stroke-opacity="0"></use></g></g></g></g></svg>